<svg viewBox="0 0 1024 1039" xmlns="http://www.w3.org/2000/svg"><path d="M582 219q47-46 112-46t112 46q46 47 46 112t-46 112l-99 98q-46 46-111.5 46T484 541q-15-15-36.5-15T411 541q-15 15-15 36.5t15 36.5q38 38 86 57t98 19q50 0 98-19t86-57l99-99q38-38 57-86t19-98q0-50-19-98t-57-86q-38-38-86-57t-98-19q-50 0-98 19t-86 57l-49 49q-15 15-15 36.5t15 36.5q15 15 36 15t36-15l49-50zM442 807q-47 46-112 46t-112-46q-46-47-46-112t46-112l99-98q46-46 111.5-46T540 485q15 15 36.5 15t36.5-15q15-15 15-36.5T613 412q-38-38-86-57t-98-19q-50 0-98 19t-86 57l-99 99q-38 38-57 86t-19 98q0 50 19 98t57 86q38 38 86 57t98 19q50 0 98-19t86-57l49-49q15-15 15-36.5T563 757q-15-15-36-15t-36 15l-49 50z"/></svg>