<svg viewBox="0 0 1024 1039" xmlns="http://www.w3.org/2000/svg"><path d="M321 244q-23-20-34.5-31.5T272 193q-7-17-.5-33.5T294 134q7-4 23.5-4.5t47.5-.5h294q31 0 47.5.5T730 134q16 9 22.5 25.5T752 193q-3 8-14.5 19.5T703 244l-40 35q-4 4-7 6.5t-5 5.5q-4 5-6 10.5t-2 12.5q-1 3-.5 6.5L644 331l11 90q1 10 2 16t3 11q2 10 7.5 19t12.5 16q3 4 8 7.5t13 10.5l29 22q36 28 55 44t24 27q10 23 2 46.5T781 676q-11 6-35.5 7t-70.5 1H349q-46 0-70.5-1t-35.5-7q-22-12-30-35.5t2-46.5q5-11 24-27t55-44l29-22q8-7 13-10.5t8-7.5q7-7 12.5-16t7.5-19q2-5 3-11t2-16l11-90 1.5-10.5q.5-3.5-.5-6.5 0-7-2-12.5t-6-10.5q-2-3-5-5.5t-7-6.5l-40-35zm191 388q21 0 36 15t15 37v256q0 21-15 36t-36 15q-21 0-36-15t-15-36V684q0-22 15-37t36-15z"/></svg>