<svg viewBox="0 0 1024 1039" xmlns="http://www.w3.org/2000/svg"><path d="M57 445q0-72 2.5-112.5T75 265q13-24 32-43t43-32q27-14 67.5-16t112.5-2h250q72 0 112.5 2t67.5 16q24 13 43 32t32 43q14 27 16 67.5t2 112.5v54l-102-96q-41-39-92.5-16.5T607 465v51q-84 11-142.5 50T369 658q-34 48-51 100.5T293 854q-54 0-86.5-3T150 836q-24-13-43-32t-32-43q-13-27-15.5-67.5T57 581V445zm655-1l141 133 92 86q9 8 9 20.5t-9 20.5L712 923q-14 13-31 5.5T664 902V797q-15 0-29.5 1t-27.5 3q-50 6-89.5 20.5T449 854q-21 14-37.5 28T383 909q-9 10-24.5 5.5T345 896q5-43 20-99 16-56 51-106.5t95-85.5q59-35 153-35V465q0-12 7.5-19.5T688 437q6-1 12.5.5T712 444z"/></svg>