<svg viewBox="0 0 1024 1039" xmlns="http://www.w3.org/2000/svg"><path d="M512 44q71 0 133 26 62 27 108.5 73.5T827 252q26 62 26 133 0 59-20 124-21 65-57.5 134T688 784q-50 72-110 145-26 31-66 31t-65-31q-60-72-110-144-51-72-88-141t-58-135q-20-65-20-124 0-71 26-133 27-62 73.5-108.5T379 70q62-26 133-26zm0 85q-53 0-100 20-46 20-81 55t-55 81q-20 47-20 100 0 47 18 103 19 56 51.5 117T403 731q45 64 97 128l12 15 12-15q50-61 92-121 43-61 75-119t52-112q20-53 24-99l1-12v-11q0-53-20-100-20-46-55-81t-81-55q-47-20-100-20zM90 175q17 6 24 22t0 33q-14 37-21.5 76T85 385q0 40 7.5 79.5T114 540q7 17 0 33t-24 23q-16 6-32.5-1T35 571q-17-44-26-91t-9-95q0-48 9-95t26-91q6-17 22.5-24t32.5 0zm899 24q17 44 26 91t9 95q0 48-9 95t-26 91q-6 17-22.5 24t-32.5 0q-17-6-24-22t0-33q14-37 21.5-76t7.5-79q0-40-7.5-79T910 230q-7-17 0-33t24-22q16-7 32.5 0t22.5 24zM512 300q35 0 60 25t25 60q0 35-25 60t-60 25q-35 0-60-25t-25-60q0-35 25-60t60-25z"/></svg>