<svg viewBox="0 0 1024 1039" xmlns="http://www.w3.org/2000/svg"><path d="M512 1q106 0 199 40 94 40 163.5 109.5T984 314q40 93 40 199t-40 199q-40 94-109.5 163.5T711 985q-93 40-199 40t-199-40q-94-40-163.5-109.5T40 712Q0 619 0 513t40-199q40-94 109.5-163.5T313 41Q406 1 512 1zm219 297h-1q-15 1-51 14t-147 59q-20 8-49 20-29 13-67.5 29.5L328 458q-48 21-107 46-18 8-28 15.5T182 534q-2 14 15 20.5t42 14.5q21 6 45 12.5t38 6.5q13 1 27.5-4.5T380 567q109-73 165-110t59-38q3-1 6-1t5 2q3 2 3 5v4q-1 4-23 26t-48.5 47Q520 527 497 548t-26 24q-22 24-36.5 41.5T460 657q34 23 58.5 40t59.5 40q23 15 42.5 28.5T663 777q10-1 20.5-13t15.5-42q7-35 16-87 9-53 18-108t16-105q7-51 10-82 1-6 .5-12t-.5-9q-1-3-2.5-7t-5.5-8q-5-3-11-4.5t-10-1.5h1z"/></svg>