<svg viewBox="0 0 1024 1039" xmlns="http://www.w3.org/2000/svg"><path d="M256 86h213q71 0 121 50t50 121q0 18-12.5 30.5T597 300q-16 0-28-11t-14-27l-1-11q-2-32-24.5-54.5T476 172H256q-34 0-58.5 23T171 251v518q0 34 23 58.5t56 26.5h219q34 0 58.5-23t26.5-56l1-11q2-16 14-27t28-11q18 0 30.5 12.5T640 769q0 69-47 118t-115 52l-9 1H256q-69 0-118-47.5T86 778l-1-9V257q0-69 47.5-118T247 87l9-1zm542 226l171 171 2 2q1 1 2 3l3 4 2 5 2 5 1 5v11l-1 5-1 5-2 3-2 4-3 5-3 3-171 171q-12 12-30 12t-30-12q-13-13-13-30.5t13-30.5l98-97H555q-17 0-29-11t-14-27v-5q0-16 11-28.5t27-13.5l5-1h281l-98-97q-13-13-13-30.5t13-30.5q12-12 30-12t30 12z"/></svg>