<svg viewBox="0 0 1024 1039" xmlns="http://www.w3.org/2000/svg"><path d="M512 44q-97 0-183 37-85 36-149 100T80 330q-37 86-37 183t37 183q36 85 100 149t149 100q86 37 183 37 32 0 62.5-4t59.5-12q17-4 26-19.5t4-32.5q-4-17-19.5-26t-32.5-4q-24 6-49 9.5t-51 3.5q-80 0-149-30-70-30-122.5-82.5T158 662q-30-69-30-149t30-149q30-70 82.5-122.5T363 159q69-30 149-30t149 30q70 30 122.5 82.5T866 364q30 69 30 149 0 44-9.5 72.5T865 631q-13 16-27.5 23.5T809 663q-27 1-55.5-24T725 556V342q0-17-12.5-29.5T683 300q-18 0-30.5 12.5T640 342v6q-27-20-59.5-32T512 304q-43 0-81 17-38 16-66.5 44.5T320 432q-17 38-17 81t17 81q16 38 44.5 66.5T431 705q38 17 81 17 45 0 84-17.5t67-47.5q23 44 63 68.5t86 22.5q34-2 65.5-18t55.5-47q23-31 35.5-73.5T981 513q0-97-37-183-36-85-100-149T695 81q-86-37-183-37zM389 513q0-51 36-87t87-36q51 0 87 36t36 87q0 51-36 87t-87 36q-51 0-87-36t-36-87z"/></svg>