<svg viewBox="0 0 1024 1039" xmlns="http://www.w3.org/2000/svg"><path d="M331 86h362q26 0 47 .5t39 1.5q18 2 34.5 5.5T845 105q25 12 44 31t31 44q8 15 11.5 31.5T937 246q1 18 1.5 39t.5 47v234q0 26-.5 47t-1.5 39q-2 18-5.5 34.5T920 718q-12 25-31 44t-44 31q-15 8-31.5 11.5T779 810q-18 1-39 1.5t-47 .5H332.5q-5.5 0-8.5 1l-6 2q-3 1-6 3-3 1-7 5l-16 16-131 131q-9 9-21.5 11.5T112 979q-12-5-19.5-15.5T85 940V332q0-26 .5-47t1.5-39q2-18 5.5-34.5T104 180q12-25 31-44t44-31q15-8 31.5-11.5T245 88q18-1 39-1.5t47-.5zm-79 87q-14 1-22 3t-13 5q-12 6-21.5 15.5T180 218q-3 5-5 13t-3 22q-1 15-1 34v550l58-58q0-1 .5-1.5l1.5-1.5q9-9 17.5-17t18.5-14q9-5 18-9t19-6q11-3 23-3.5t25-.5h386q19 0 34-1 14-1 22-3t13-5q12-6 21.5-15.5T844 680q3-5 5-13t3-22q1-15 1-34V334v-47q0-19-1-34-1-14-3-22t-5-13q-6-12-15.5-21.5T807 181q-5-3-13-5t-22-3q-15-1-34-1H286q-19 0-34 1z"/></svg>