<svg viewBox="0 0 1024 1039" xmlns="http://www.w3.org/2000/svg"><path d="M158 99q-12-13-30-13T98 99q-13 12-13 30t13 30l768 768q12 13 30 13t30-13q13-12 13-30t-13-30L777 718q46-49 72-112.5T875 470q0-17-12.5-29.5T832 428q-18 0-30.5 12.5T789 470q0 54-19 102t-53 85l-76-75q20-23 31-51.5t11-60.5V257q0-71-50-121T512 86q-71 0-121 50t-50 121v25L158 99zm183 371v-7l178 178h-7q-71 0-121-50t-50-121zm171 278q26 0 50-4.5t47-13.5l65 65q-28 14-58 23t-61 13v87q0 18-12.5 30.5T512 961q-18 0-30.5-12.5T469 918v-87q-67-8-126-40-58-31-101-79t-68-110q-25-62-25-132 0-17 12.5-29.5T192 428q18 0 30.5 12.5T235 470q0 58 21 108 22 51 60 88.5t88 59.5q51 22 108 22z"/></svg>