<svg viewBox="0 0 1024 1039" xmlns="http://www.w3.org/2000/svg"><path d="M448 108q0-27 18.5-45.5T512 44q27 0 45.5 18.5T576 108v6q51 11 94 37 44 27 77 65t52 86q20 48 22 102l7 182q2 41 14.5 80.5T878 740l32 48q7 10 7.5 21.5T912 832l-4 6q-2 3-5 6l23 23q13 12 13 30t-13 30q-12 13-30 13t-30-13L98 159q-13-12-13-30t13-30q12-13 30-13t30 13l118 118q33-39 77-65.5t95-37.5v-3-3zM337 277l429 430q-10-28-16-57.5t-7-59.5l-7-182q-2-45-20-84-19-40-49-69t-70-45q-40-17-85-17-53 0-98.5 23T337 277zm310 492l86 85H149q-11 0-21.5-6T112 832q-6-11-5.5-22.5T114 788l32-48q23-34 35.5-73.5T196 586l7-182q1-17 3.5-34.5T214 335l74 75-7 180q-2 47-15.5 92.5T228 769h419zM512 982q35 0 60-25t25-60H427q0 35 24.5 60t60.5 25z"/></svg>