<svg viewBox="0 0 1024 1039" xmlns="http://www.w3.org/2000/svg"><path d="M789 73q45 0 76 31t31 75v668q0 18-6.5 35.5T872 915q-28 34-72 38t-78-24L512 756v77q0 51-35 88t-85 40h-8q-51 0-88-35t-40-85V722q-73-15-122-73.5T85 513q0-44 17-83t46-68q29-29 68-46 38-16 83-16h176L722 97q14-12 31.5-18t35.5-6zM341 726v107q0 18 12.5 30.5T384 876q16 0 28.5-11t13.5-27l1-5V726h-86zm448-568q-3 0-6.5 1t-6.5 4L530 366q-12 9-26 14t-29 5H299q-53 0-90.5 37.5T171 513q0 53 37.5 90.5T299 641h176q15 0 29 5t26 14l246 203q7 6 15.5 5t14.5-8q2-3 3.5-6.5t1.5-6.5V179q0-9-6.5-15t-15.5-6z"/></svg>