<svg viewBox="0 0 1024 1039" xmlns="http://www.w3.org/2000/svg"><path d="M341 556q53 0 99 6 46 7 85 20.5t70 34.5q31 21 54 48 17 19 25.5 42.5T683 756v34q0 45-31.5 76T576 897H107q-45 0-76-31T0 790v-34q0-25 8.5-48.5T33 665q24-27 55-48t69.5-34.5Q196 569 242 562q46-6 99-6zm425 44h5q69 4 122 24t89 55q18 18 29 41.5t13 49.5v31q0 38-26 65.5T935 897H811q-18 0-30.5-12.5T768 854q0-16 11-28t27-14h122q4 0 7-2.5t3-6.5l1-2v-22q0-11-4.5-21T922 740q-24-23-63-37t-94-18q-17-1-29-14.5T725 640q2-17 13.5-28t27.5-12zm-425 41q-89 0-149.5 20T98 720q-6 8-9.5 17T85 756v34q0 9 6.5 15.5T107 812h469q9 0 15-6.5t6-15.5v-34q0-10-3-19t-10-17q-33-39-93-59t-150-20zm384-427q62 0 106 44t44 106q0 62-44 105.5T725 513q-62 0-105.5-43.5T576 364q0-62 43.5-106T725 214zm-384-85q71 0 121 50t50 121q0 70-50 120t-121 50q-70 0-120-50t-50-120q0-71 50-121t120-50zm384 171q-26 0-45 18.5T661 364q0 26 19 45t45 19q27 0 45.5-19t18.5-45q0-27-18.5-45.5T725 300zm-384-86q-35 0-60 25t-25 61q0 35 25 60t60 25q36 0 61-25t25-60q0-36-25-61t-61-25z"/></svg>