<svg viewBox="0 0 1024 1039" xmlns="http://www.w3.org/2000/svg"><path d="M549 257q4 6 6 13t2 15v456q0 23-16 38.5T503 795q-7 0-14-2t-14-6l-144-86q-20-12-32-33t-12-44V402q0-23 12-44t32-33l144-86q19-12 41-6.5t33 24.5zm-369 94q22 0 38 16t16 38v216q0 22-16 38t-38 16q-23 0-38.5-16T126 621V405q0-22 15.5-38t38.5-16zm666 50q8-5 17.5-4.5T880 404q7 7 8 16.5t-4 17.5l-3 4-71 72 71 72q7 8 7 19t-8 19q-7 7-16.5 7.5T846 627l-4-3-70-72-70 72-4 3q-8 5-17.5 4.5T664 624q-7-7-8-16.5t4-17.5l3-4 71-72-71-72q-7-8-7-19t8-19q7-7 16.5-7.5T698 401l4 3 70 72 70-72 4-3z"/></svg>