<svg viewBox="0 0 1024 1039" xmlns="http://www.w3.org/2000/svg"><path d="M111 181l5 3 768 768q12 13 12 30.5t-12 30.5q-12 11-28 12t-29-9l-4-3-115-116H299q-51 0-88-35t-40-85V428q0-15 3-29t9-26L55 245q-12-13-12-30.5T55 184q12-11 28-12t28 9zm511 631L256 445v324q0 16 11 28.5t27 13.5l5 1h323zM512 1q43 0 81 16t67 43.5Q689 88 706 125q17 38 19 80v95q51 0 88 35t40 85v306q0 18-12.5 30.5T811 769q-17 0-29-11t-14-27V428q0-17-11-29t-27-14H427q-18 0-30.5-12.5T384 342q0-16 11-28t27-14h218v-86q0-53-37.5-90.5T512 86q-51 0-88 35t-40 86v50q0 18-12.5 30.5T341 300q-16 0-28-11t-14-27v-48q0-44 16-83 17-39 46-67.5T429 18q39-17 83-17z"/></svg>