<svg viewBox="0 0 1024 1039" xmlns="http://www.w3.org/2000/svg"><path d="M256 129h597q51 0 88 35t40 85v93q0 17-10.5 29T944 385H811v384q0 51-35 88t-86 40H171q-53 0-90.5-37.5T43 769v-85q0-18 12.5-30.5T85 641h43V257q0-51 35-88t85-40h8zm299 597H128v43q0 18 12.5 30.5T171 812h391q-4-10-5.5-21t-1.5-22v-43zm178-512H256q-16 0-28.5 11T214 252l-1 5v384h384q18 0 30.5 12.5T640 684v85q0 17 11 29t27 13l5 1q16-1 28-11.5t14-26.5V257q0-9 1.5-17.5T730 222l3-8zm120 0l-5 1q-14 1-24.5 11.5T811 252v48h85v-43q0-16-11-28.5T858 215l-5-1z"/></svg>