<svg viewBox="0 0 1024 1039" xmlns="http://www.w3.org/2000/svg"><path d="M662 233q4 2 7.5 5t7.5 6l104 104q22 23 22 55.5T781 459q-4 3-7.5 6t-8.5 6l-81 49q8 48-11.5 95.5T608 709q-10 10-25 10t-25-10l-96-96-138 138q-10 10-23 10.5t-24-6.5l-3-4q-10-9-10.5-22.5T270 705l4-4 138-138-96-96q-10-10-10-25t10-25q43-43 88.5-62.5T496 340l9 1 49-81q17-28 48.5-36t59.5 9zm-47 63l-62 104q-7 11-18.5 15t-23.5 0q-29-9-58-2.5T393 444l188 188 7-8q20-29 25.5-56t-3.5-54q-4-12 0-23.5t15-18.5l105-63q3-2 3-5t-3-6L627 295l-2-2q-2-1-5-.5t-5 3.5z"/></svg>