<svg viewBox="0 0 1024 1039" xmlns="http://www.w3.org/2000/svg"><path d="M358 129h-1q-35 0-63.5.5T243 131q-23 2-44 7t-40 14q-30 16-54 39.5T66 245q-10 19-14.5 40T45 329q-2 23-2 51v266q0 28 2 51t6.5 44Q56 762 66 781q15 30 39 53.5t54 39.5q19 9 40 14t44 7q22 1 50.5 1.5t63.5.5h310q35 0 63.5-.5T781 895q23-2 44-7t40-14q30-16 54-39.5t39-53.5q10-19 14.5-40t6.5-44q2-23 2-51V443v-63q0-28-2-51t-6.5-44q-4.5-21-14.5-40-15-30-39-53.5T865 152q-19-9-40-14t-44-7q-22-1-50.5-1.5T667 129H358zm-160 99q8-4 20-7t32-4q20-2 46-2.5t62-.5h308q36 0 62 .5t46 2.5q20 1 32 4t20 7q18 9 32.5 23.5T882 284q4 9 7 21t5 31q1 20 1.5 46t.5 63v136q0 37-.5 63t-1.5 46q-2 19-5 31t-7 21q-9 18-23.5 32.5T826 798q-8 4-20 7t-32 4q-20 2-46 2.5t-62 .5H358q-36 0-62-.5t-46-2.5q-20-1-32-4t-20-7q-18-9-32.5-23.5T142 742q-4-9-7-21t-5-31q-1-20-1.5-46t-.5-63V445q0-37 .5-63t1.5-46q2-19 5-31t7-21q9-18 23.5-32.5T198 228zm276 266q-4 6-4.5 16.5T469 539v119q0 18 .5 28t4.5 17q3 6 8 11t11 8q6 3 16.5 3.5t28.5.5h204q18 0 28.5-.5T787 722q6-3 11-8t8-11q4-7 4.5-17t.5-28V539q0-18-.5-28.5T806 494q-3-6-8-11t-11-8q-6-4-16.5-4.5T742 470H538q-18 0-28.5.5T493 475q-6 3-11 8t-8 11z"/></svg>