<svg viewBox="0 0 1024 1039" xmlns="http://www.w3.org/2000/svg"><path d="M899 265q15 10 18 27.5t-7 31.5L777 513l133 189q10 14 7 31.5T899 761q-14 10-31.5 7T840 751L725 587 611 751q-10 14-27.5 17t-31.5-7q-15-10-18-27.5t7-31.5l132-189-132-189q-10-14-7-31.5t18-27.5q14-10 31.5-7t27.5 17l114 164 115-164q10-14 27.5-17t31.5 7zm-750-8q-17 0-29.5 12.5T107 300q0 17 12.5 29.5T149 342h171v128H192q-35 0-60 25t-25 61v128q0 35 25 60t60 25h171q17 0 29.5-12.5T405 726q0-17-12.5-29.5T363 684H192V556h128q35 0 60-25t25-61V342q0-35-25-60t-60-25H149z"/></svg>