<svg viewBox="0 0 1024 1039" xmlns="http://www.w3.org/2000/svg"><path d="M401 86h-2q-34 0-62.5.5T286 89q-24 2-44.5 6.5T202 110q-30 15-54 39t-39 54q-10 19-14.5 39.5T88 286q-2 23-2.5 51.5T85 400v226q0 34 .5 62.5T88 739q2 24 6.5 44.5T109 823q15 30 39 54t54 39q19 10 39.5 14.5T285 937q23 2 51.5 2.5t62.5.5h226q34 0 62.5-.5T739 937q23-2 43.5-6.5T822 916q30-15 54-39t39-54q10-19 14.5-39.5T936 739q2-22 2.5-50.5t.5-62.5V400q0-34-.5-62.5T936 286q-2-23-6.5-43.5T915 203q-15-30-39-54t-54-39q-19-10-39.5-14.5T739 89q-23-2-51.5-2.5T625 86H401zM241 186q8-5 20-8t31-4q20-2 46.5-2h347q26.5 0 46.5 2 19 1 31 4t20 8q19 9 33 23t23 33q5 8 8 20t4 31q2 20 2 46.5v347q0 26.5-2 46.5-1 19-4 31t-8 20q-9 19-23 33t-33 23q-8 5-20 8t-31 4q-20 2-46.5 2h-347q-26.5 0-46.5-2-19-1-31-4t-20-8q-19-9-33-23t-23-33q-5-8-8-20t-4-31q-2-20-2-46.5V402v-62.5q0-26.5 2-46.5 1-19 4-31t8-20q9-19 23-33t33-23zm314 114q0-18-12.5-30.5T512 257q-18 0-30.5 12.5T469 300v426q0 18 12.5 30.5T512 769q18 0 30.5-12.5T555 726V300zm128 213q17 0 29.5 12.5T725 556v170q0 18-12.5 30.5T683 769q-18 0-30.5-12.5T640 726V556q0-18 12.5-30.5T683 513zm-299-85q0-18-12.5-30.5T341 385q-17 0-29.5 12.5T299 428v298q0 18 12.5 30.5T341 769q18 0 30.5-12.5T384 726V428z"/></svg>