<svg viewBox="0 0 1024 1039" xmlns="http://www.w3.org/2000/svg"><path d="M19 222Q5 250 2.5 290T0 402v222q0 72 2.5 112T19 804q12 24 31 43t43 31q28 14 68 16.5t112 2.5h478q72 0 112-2.5t68-16.5q24-12 43-31t31-43q14-28 16.5-68t2.5-112V402q0-72-2.5-112t-16.5-68q-12-24-31-43t-43-31q-28-14-68-16.5T751 129H273q-72 0-112 2.5T93 148q-24 12-43 31t-31 43zm720 88q10 4 16 13t6 19v306h50q14 0 24.5 10.5T846 684q0 14-10.5 24.5T811 719H640q-15 0-25-10.5T605 684q0-15 10-25.5t25-10.5h50V428l-25 25q-10 10-25 10t-25-10q-10-11-10-25.5t10-24.5l85-86q8-7 18.5-9t20.5 2zm-398 40q15 0 25.5 10t10.5 25v93h92q15 0 25.5 10t10.5 25q0 15-10.5 25T469 548h-92v93q0 15-10.5 25T341 676q-14 0-24.5-10T306 641v-93h-93q-14 0-24.5-10T178 513q0-15 10.5-25t24.5-10h93v-93q0-15 10.5-25t24.5-10z"/></svg>