<svg viewBox="0 0 1024 1039" xmlns="http://www.w3.org/2000/svg"><path d="M512 300q-45 0-84 16-39 17-67.5 45.5T315 429q-16 39-16 84t16 84q17 39 45.5 67.5T428 710q39 16 84 16t84-16q39-17 67.5-45.5T709 597q16-39 16-84t-16-84q-17-39-45.5-67.5T596 316q-39-16-84-16zm0-214q-88 0-166 34-77 34-135 92t-92 135q-34 78-34 166t34 166q34 77 92 135t135 92q78 34 166 34t166-34q77-34 135-92t92-135q34-78 34-166t-34-166q-34-77-92-135t-135-92q-78-34-166-34zm0 768q-70 0-133-27-62-27-108-73t-73-108q-27-63-27-133t27-133q27-62 73-108t108-73q63-27 133-27t133 27q62 27 108 73t73 108q27 63 27 133t-27 133q-27 62-73 108t-108 73q-63 27-133 27z"/></svg>