<svg viewBox="0 0 1024 1039" xmlns="http://www.w3.org/2000/svg"><path d="M441 265q8 9 14 18t10 17q2 3 3.5 6t1.5 5q1 0 1 1v1h1q4 13 15 21t25 8q14 0 25-8t15-21h1v-1q0-1 1-1 0-2 1.5-5t3.5-6q4-8 10-17t14-18q17-19 46-35t75-15q47 0 98 42.5T853 385q0 69-40 136.5T714 648q-58 57-115.5 98T512 805q-29-18-86.5-59T310 648q-59-59-99-126.5T171 385q0-85 51-127.5t98-42.5q46-1 75 15t46 35zm71-48q-2-3-4-5.5t-5-4.5q-27-30-72-54t-111-24v43-43q-40 0-82 17t-76 49.5Q128 228 107 276q-22 48-22 109 0 48 14 93t37.5 86q23.5 41 52.5 77 30 36 61 67 63 64 126 108t94 63q19 12 42 12t42-12l-42-662zm42 662q31-19 94-63t126-108q31-31 61-67 29-36 52.5-77t37.5-86q14-45 14-93 0-61-22-109-21-48-55-80.5T786 146q-42-17-82-17-66 0-111 24t-72 54q-3 2-5 4.5t-4 5.5l42 662z"/></svg>