<svg viewBox="0 0 1024 1039" xmlns="http://www.w3.org/2000/svg"><path d="M512 172q-13-16-31.5-24t-38.5-7q-16 1-29 8t-22 14q-9 8-20 18t-24 21L109 422q-6 6-12 11.5T86 444q-5 6-10 13.5T67 475q-4 13-4 27.5t4 27.5q4 10 9 17.5T86 560q5 6 11 11.5t12 11.5l238 219q13 12 24 22t20 17q9 7 22 14.5t29 7.5q20 1 38.5-7t31.5-23q10-13 13.5-27t4.5-26q1-11 1.5-26t.5-32v-26q96 6 161.5 36T799 796l1 1q15 12 27 22t21 17q4 4 9 7l10 6q3 2 11.5 5.5T898 857q7 0 14.5-2t15.5-6q8-5 13.5-10.5T950 827q6-9 7-17t2-13q0-5-.5-10.5T957 776q-1-10-3.5-23t-4.5-29l-1-1q-11-61-37.5-133T831 456q-25-29-55-54-31-24-68-43t-81-31q-44-12-95-16v-29q0-17-.5-32t-1.5-27q-1-11-4.5-25.5T512 172zm-67 58v2q1 8 1 21v100q0 18 12.5 30.5T489 396q102 0 168.5 33T766 511q42 51 65 111.5T864 738l.5.5q.5.5.5 1.5-3-2-5.5-4.5T854 731q-28-24-64-45-36-22-81-39t-100-28q-54-10-120-10-8 0-16 3t-14 9q-6 6-9.5 14t-3.5 17v99.5q0 12.5-1 21.5v2l-.5-.5q-.5-.5-1.5-.5-7-6-16-14.5T404 738L168 521q-7-7-11.5-11t-7.5-7v-.5-.5l7.5-7.5Q161 490 168 484l236-218q14-13 23-21.5t16-13.5q1 0 1.5-.5l.5-.5zm464 545zm-36 19v0zM489 353v-68q0-37-1-57t-9-29q-6-8-15.5-12t-19.5-3q-11 1-26.5 13.5T375 235L139 452q-14 13-21.5 21t-9.5 16q-3 6-3 13t3 14q2 8 9.5 15.5T139 552l236 218q27 25 42.5 37.5T444 821q10 0 19.5-4t15.5-12q8-8 9-28t1-57v-68q62 0 113 9 51 10 92.5 25.5T769 722q33 20 57 41 31 26 47.5 39t22.5 13q6-1 10.5-3.5t7.5-7.5q3-5 .5-22.5T906 730q-10-58-35-124t-72.5-122.5Q751 427 675 390q-75-37-186-37z"/></svg>