<svg viewBox="0 0 1024 1039" xmlns="http://www.w3.org/2000/svg"><path d="M810 495q-3-59-28-110t-65-89q-40-38-93-60-52-22-112-22-62 0-116 24-55 23-95.5 63.5T237 397q-24 54-24 116t24 116q23 55 63.5 95.5T396 788q54 24 116 24 18 0 30.5 12.5T555 854q0 18-12.5 30.5T512 897q-80 0-149-30-70-30-122.5-82.5T158 662q-30-69-30-149t30-149q30-70 82.5-122.5T363 159q69-30 149-30 77 0 146 29 68 28 120 77.5T861 352q31 67 35 144l55-56q13-12 30.5-12t30.5 12q12 13 12 30.5t-12 30.5L884 629q-13 12-30.5 12T823 629L695 501q-12-13-12-30.5t12-30.5q13-12 30.5-12t30.5 12l54 55z"/></svg>