<svg viewBox="0 0 1024 1039" xmlns="http://www.w3.org/2000/svg"><path d="M352 44q16 0 28.5 10.5T394 81l1 5v187q0 18-12.5 30.5T352 316q-16 0-28.5-11T310 278l-1-5v-86q-41 26-75 61-33 35-57 77t-36 90q-13 47-13 98 0 80 30 149 30 70 82.5 122.5T363 867q69 30 149 30t149-30q70-30 122.5-82.5T866 662q30-69 30-149t-30-149q-30-70-82.5-122.5T661 159q-69-30-149-30-18 0-30.5-12.5T469 86q0-17 12.5-29.5T512 44q97 0 183 37 85 36 149 100t100 149q37 86 37 183t-37 183q-36 85-100 149T695 945q-86 37-183 37t-183-37q-85-36-149-100T80 696q-37-86-37-183 0-58 14-114 13-55 39-104t63-92q37-42 83-74h-77q-16 0-28-11t-14-27v-5q0-16 10.5-28T160 44h192zm160 160q16 0 28.5 10.5T554 241l1 5v249l147 148q12 11 12.5 27.5T706 699l-4 4q-11 12-27.5 12.5T646 707l-4-4-160-160q-5-5-8-11t-4-13l-1-6V246q0-17 12.5-29.5T512 204z"/></svg>