<svg viewBox="0 0 1024 1039" xmlns="http://www.w3.org/2000/svg"><path d="M851 511v35.5q0 11.5 2 17.5t3.5 10q1.5 4 5.5 10 4 5 10.5 11t17.5 15l1 1q17 15 26.5 24t14.5 18q3 8 5 16.5t1 17.5q-1 10-7 21.5T914 740l-9 15q-10 19-17 29.5T874 801q-8 6-17.5 9.5T837 814q-9 0-21-3.5T784 799q-14-5-22-7.5t-14-3.5q-7-1-12-.5t-13 2.5q-5 2-15 7.5T681 813h-1q-18 11-27.5 17T639 840q-5 5-8 8.5t-5 10.5q-3 5-4.5 13.5T617 897q-4 23-7 35.5t-9 21.5q-5 7-11.5 13T574 977q-9 4-22 4.5t-36 .5h-12q-23 0-36-.5t-23-4.5q-8-4-15-10t-12-13q-5-9-8-21.5t-7-35.5q-3-16-4.5-24.5T394 859q-3-7-5.5-10.5T381 840q-4-4-13.5-10T340 813h-1q-18-10-27.5-15.5T296 790q-7-2-12-2.5t-12 .5q-6 1-14 3.5t-22 7.5q-20 8-32 11.5t-21 3.5q-10 0-19.5-3.5T146 801q-8-6-14.5-16.5T114 755l-8-15q-11-20-17-31.5T82 687q-1-9 .5-17.5T88 653q5-9 14-18t27-24l1-1q11-9 17.5-15t10.5-11l5-10q2-4 4-10 1-6 1.5-17.5t.5-31.5v-4q0-20-.5-31.5T167 462q-2-6-4-10l-5-10q-4-5-10.5-11T130 416l-1-1q-18-15-27-24t-14-18q-4-8-5.5-16.5T82 339q1-10 7-21.5t17-31.5l8-15q11-19 17.5-29.5T146 225q8-6 17.5-9.5T183 212q9 0 21 3.5t32 11.5q14 5 22 7.5t14 3.5q7 1 12 .5t12-2.5q6-2 15.5-7.5T339 213h1q18-11 27.5-17t13.5-10q5-5 7.5-8.5T394 167q3-5 4.5-13.5T403 129q4-23 7-35.5t8-21.5q5-7 12-13t15-10q10-4 23-4.5t36-.5h12q23 0 36 .5t22 4.5q9 4 15.5 10T601 72q6 9 9 21.5t7 35.5q3 16 4.5 24.5T626 167q2 7 5 10.5t8 8.5q4 4 13.5 10t27.5 17h1q17 10 27 15.5t15 7.5q8 2 13 2.5t12-.5q6-1 14-3.5t22-7.5q20-8 32-11.5t21-3.5q10 0 19.5 3.5T874 225q7 6 14 16.5t17 29.5l9 15q11 20 17 31.5t7 21.5q1 9-1 17.5t-5 16.5q-5 9-14.5 18T891 414l-1 2q-12 9-18 15t-10 11q-4 6-5.5 10t-3.5 10q-2 6-2 17.5V511zM512 641q53 0 90.5-37.5T640 513q0-53-37.5-90.5T512 385q-53 0-90.5 37.5T384 513q0 53 37.5 90.5T512 641z"/></svg>