<svg viewBox="0 0 1024 1039" xmlns="http://www.w3.org/2000/svg"><path d="M768 214H597q-17 0-29.5 12.5T555 257q0 18 12.5 30.5T597 300h68L226 739q-13 12-13 30t13 30q12 13 30 13t30-13l439-439v68q0 17 12.5 29.5T768 470q18 0 30.5-12.5T811 428V257q0-9-3.5-16.5T798 227q-3-3-6.5-5.5T784 218q-3-2-7.5-3t-8.5-1zm-482 13l196 195-61 61-195-196q-13-12-13-30t13-30q12-13 30-13t30 13zm317 316l-61 61 123 122h-68q-17 0-29.5 12.5T555 769q0 18 12.5 30.5T597 812h171q8 0 16-3.5t14-9.5q3-3 5.5-6.5t3.5-7.5q2-3 3-7.5t1-8.5V598q0-17-12.5-29.5T768 556q-18 0-30.5 12.5T725 598v68L603 543z"/></svg>