<svg viewBox="0 0 1024 1039" xmlns="http://www.w3.org/2000/svg"><path d="M512 44q97 0 183 37 85 36 149 100t100 149q37 86 37 183t-37 183q-36 85-100 149T695 945q-86 37-183 37t-183-37q-85-36-149-100T80 696q-37-86-37-183t37-183q36-85 100-149T329 81q86-37 183-37zm121 105l-99 59q-9 6-19 6.5t-20-3.5l-5-3-99-59q-55 18-102 51.5T208 279q1 1 1.5 3t1.5 4l1 3 21 86q3 9 1 18.5t-8 17.5l-4 4-85 86q-2 2-4.5 3.5T128 507v6q0 74 26 139.5T226 769h94q11 0 21 5.5t16 15.5l56 94q24 6 48.5 9.5T512 897q26 0 50.5-3.5T611 884l56-94q5-9 13.5-14t17.5-7h100q46-51 72-116.5T896 513v-6q-2-1-4.5-2.5T887 501l-85-86q-8-8-11-18.5t0-21.5l21-86q1-3 2-5.5t2-4.5q-32-42-75-74.5T647 153l-14-4zm-95 159l170 128q12 9 16 23.5t-2 28.5l-86 192q-5 11-15.5 18t-23.5 7H427q-13 0-23.5-7T388 680l-86-192q-6-14-2-28.5t16-23.5l170-128q12-8 26-8t26 8zm-26 88l-118 88 60 136h116l60-136-118-88z"/></svg>