<svg viewBox="0 0 1024 1039" xmlns="http://www.w3.org/2000/svg"><path d="M341 982q-62 0-116-23-54-24-94.5-64.5T66 800q-23-54-23-116V342q0-62 23-116 24-54 64.5-94.5T225 67q54-23 116-23h342q62 0 116 23 54 24 94.5 64.5T958 226q23 54 23 116v220q0 24-7 48t-20 45q-30 45-63.5 86.5T820 821q-38 37-79.5 70.5T654 955q-21 13-45 20t-48 7H341zm342-853H341q-44 0-83 17t-67.5 45.5Q162 220 145 259t-17 83v342q0 44 17 83t45.5 67.5Q219 863 258 880t83 17h171q16 0 28.5-11t13.5-27l1-5V671q0-46 31-79t77-36h190q17 0 29-11t14-27V342q0-44-17-83t-45.5-67.5Q805 163 766 146t-83-17zm177 512H670q-11 0-19.5 7.5T640 667v194q32-23 62-48t57-53q28-27 53-57t48-62z"/></svg>