<svg viewBox="0 0 1024 1039" xmlns="http://www.w3.org/2000/svg"><path d="M683 556q16 0 28 10.5t14 26.5v91h128q18 0 30.5 12.5T896 726q0 17-11 29t-27 14H725v85q0 18-12.5 30.5T683 897q-17 0-29-11t-14-27V598q0-17 12.5-29.5T683 556zM512 684q18 0 30.5 12.5T555 726q0 17-11 29t-27 14H171q-18 0-30.5-12.5T128 726q0-16 11-28t27-14h346zM341 129q17 0 29 11t14 27v261q0 17-12.5 29.5T341 470q-16 0-28-10.5T299 433v-91H171q-18 0-30.5-12.5T128 300q0-17 11-29t27-14h133v-85q0-18 12.5-30.5T341 129zm512 128q18 0 30.5 12.5T896 300q0 16-11 28t-27 14H512q-18 0-30.5-12.5T469 300q0-17 11-29t27-14h346z"/></svg>