<svg viewBox="0 0 1024 1039" xmlns="http://www.w3.org/2000/svg"><path d="M448 108q0-27 18.5-45.5T512 44q27 0 45.5 18.5T576 108v6q51 11 94 37 44 27 77 65t52 86q20 48 22 102l7 182q2 41 14.5 80.5T878 740l32 48q7 10 7.5 21.5T912 832q-5 10-15.5 16t-21.5 6H149q-11 0-21.5-6T112 832q-6-11-5.5-22.5T114 788l32-48q23-34 35.5-73.5T196 586l7-182q2-54 22-102 19-48 52-86t77-65q43-26 94-37v-3-3zm64 85q-45 0-85 17-40 16-70 45t-49 69q-18 39-20 84l-7 182q-2 47-15.5 92.5T228 769h568q-24-41-37.5-86.5T743 590l-7-182q-2-45-20-84-19-40-49-69t-70-45q-40-17-85-17zm0 789q35 0 60-25t25-60H427q0 35 24.5 60t60.5 25z"/></svg>