<svg viewBox="0 0 1024 1039" xmlns="http://www.w3.org/2000/svg"><path d="M365 86h296q14 0 26 .5t22 .5q8 1 19.5 2.5T750 97q30 15 42 47t0 64q-4 11-11 19.5T768 242q-7 7-16 15t-20 18l-40 36q-3 2-4.5 3.5L685 317q0 1 .5 3t.5 6l11 90q2 11 2.5 14.5t1.5 5.5q1 5 3.5 9.5t6.5 8.5q1 1 4 3.5t12 9.5l30 23q17 13 31.5 24t24.5 20q10 9 19.5 19.5T848 576q17 39 3.5 78.5T801 713q-5 3-10 5t-11 3l146 146q13 12 13 30t-13 30q-12 13-30 13t-30-13L98 159q-13-12-13-30t13-30q12-13 30-13t30 13l68 68q2-22 14.5-41T274 97q10-6 21.5-7.5T315 87q10 0 22-.5t26-.5h2zm335 555h24.5q10.5 0 18.5-1 9 0 13-1t5-1q7-4 9.5-11.5T770 612v-1q-1 0-3.5-3t-9.5-9q-9-8-22-18t-31-24l-31-24q-7-5-13-10t-11-11q-11-11-18.5-24T619 460q-2-7-3.5-15t-2.5-16v-3l-11-90-1-2q0-5-.5-11t-.5-12q1-13 5.5-24.5T617 265q4-5 8.5-9.5t8.5-7.5l1-1 39-35q12-10 20-17.5t13-12.5q3-2 4-3.5t2-2.5q0-1-.5-1.5t-.5-1.5q-1 0-3-.5t-5-.5H320q-3 0-5 .5t-3 .5q0 1-.5 1.5t-.5 1.5q1 1 2 2.5t4 3.5q5 5 13 12.5t20 17.5l40 36q4 3 8.5 7.5t8.5 9.5q7 10 11.5 21.5T424 311q0 6-.5 12t-.5 11l-1 2-3 24 281 281zM313 454q3-3 5-5.5t3-5.5l62 61-4 4-4 4q-5 6-11 11t-13 10l-31 24q-18 14-31 24t-22 18q-7 6-9.5 9t-3.5 3v1q-3 7-.5 14.5T263 638q1 0 5 1t13 1q11 1 27.5 1H519l86 85h-50v214q0 17-12.5 29.5T512 982q-18 0-30.5-12.5T469 940V726H307.5q-17.5 0-31.5-1-13 0-27-2.5t-26-9.5q-37-19-50.5-58.5T176 576q6-12 15.5-22.5T211 534q10-9 24.5-20t31.5-24l30-23q9-7 12-9.5t4-3.5z"/></svg>