<svg viewBox="0 0 1024 1039" xmlns="http://www.w3.org/2000/svg"><path d="M405 278q0-44 31.5-75t75.5-31q44 0 75.5 31t31.5 75q0 45-31.5 76T512 385q-44 0-75.5-31T405 278zM512 86q-80 0-136 56.5T320 278q0 80 56 136t136 56q80 0 136-56t56-136q0-79-56-135.5T512 86zM225 703q24-26 91-65.5T512 598q129 0 196 39.5t91 65.5q5 6 8.5 16t3.5 24q0 28-20.5 48.5T742 812H282q-28 0-48.5-20.5T213 743q0-14 3.5-24t8.5-16zm287-190q-74 0-132 14-57 13-100 33t-72 44q-29 23-46 42-20 22-27 48t-7 49q0 64 45 109t109 45h460q64 0 109-45t45-109q0-23-7-49t-27-48q-17-19-46-42-29-24-72-44t-100-33q-58-14-132-14z"/></svg>