<svg viewBox="0 0 1024 1039" xmlns="http://www.w3.org/2000/svg"><path d="M290 150h232q26 0 47.5.5T608 152q18 2 34.5 5.5T675 169q24 12 43 31t31 44q8 15 12 31.5t5 34.5q1 11 1.5 24t.5 28l83-80q37-36 83.5-16t46.5 71v352q0 51-46.5 70.5T851 744l-83-80q0 15-.5 28t-1.5 24q-1 18-5 34.5T749 782q-12 25-31 44t-43 31q-16 8-32.5 11.5T608 874q-17 1-38.5 1.5t-47.5.5H288q-25 0-46.5-.5T203 874q-18-2-35-5.5T136 857q-24-12-43-31t-32-44q-8-15-11.5-31.5T45 716q-2-18-2-39V396v-47q0-21 2-39 1-18 4.5-34.5T61 244q13-25 32-44t43-31q15-8 32-11.5t35-5.5q17-1 38.5-1.5t46.5-.5h2zm478 348v30q0 9 3.5 17t9.5 14l115 110V357L781 467q-6 6-9.5 14t-3.5 17zm-85 0V398q0-28-.5-47t-1.5-34q-1-14-3-22t-5-13q-6-12-15.5-21.5T636 245q-5-3-13-5t-22-3q-14-1-33.5-1h-324q-19.5 0-33.5 1t-22 3q-8 2-13 5-12 6-22 15.5T137 282q-2 5-4 13t-3 22q-2 15-2 34v324q0 19 2 34 1 14 3 22t4 13q6 12 16 21.5t22 15.5q5 3 13 5t22 3q14 1 33.5 1h324q19.5 0 33.5-1t22-3q8-2 13-5 12-6 21.5-15.5T673 744q3-5 5-13t3-22q1-15 1.5-34t.5-47V498z"/></svg>