<svg viewBox="0 0 1024 1039" xmlns="http://www.w3.org/2000/svg"><path d="M333 86h-2q-26 0-47 .5T245 88q-18 2-34.5 5.5T179 105q-25 12-44 31t-31 44q-8 15-11.5 31.5T87 246q-1 18-1.5 39t-.5 47v608q0 13 7.5 23.5T112 979q12 5 24.5 2.5T158 970l131-131 16-16q4-4 7-5 3-2 6-3l6-2q3-1 8.5-1H693q26 0 47-.5t39-1.5q18-2 34.5-5.5T845 793q25-12 44-31t31-44q8-15 11.5-31.5T937 652q1-18 1.5-39t.5-47V332q0-26-.5-47t-1.5-39q-2-18-5.5-34.5T920 180q-12-25-31-44t-44-31q-15-8-31.5-11.5T779 88q-18-1-39-1.5t-47-.5H333zm-116 95q5-3 13-5t22-3q15-1 34-1h452q19 0 34 1 14 1 22 3t13 5q12 6 21.5 15.5T844 218q3 5 5 13t3 22q1 15 1 34v324q0 19-1 34-1 14-3 22t-5 13q-6 12-15.5 21.5T807 717q-5 3-13 5t-22 3q-15 1-34 1H352q-13 0-25 .5t-23 3.5q-10 2-19 6t-18 9q-10 6-18.5 14T231 776l-2 3-58 58V334v-47q0-19 1-34 1-14 3-22t5-13q6-12 15.5-21.5T217 181zm338 97q0-17-12.5-29.5T512 236q-18 0-30.5 12.5T469 278v342q0 17 12.5 29.5T512 662q18 0 30.5-12.5T555 620V278zm128 86q17 0 29.5 12.5T725 406v86q0 17-12.5 29.5T683 534q-18 0-30.5-12.5T640 492v-86q0-17 12.5-29.5T683 364zm-299 0q0-18-12.5-30.5T341 321q-17 0-29.5 12.5T299 364v170q0 18 12.5 30.5T341 577q18 0 30.5-12.5T384 534V364z"/></svg>