<svg viewBox="0 0 1024 1039" xmlns="http://www.w3.org/2000/svg"><path d="M789 44q80 0 136 56t56 136q0 77-53 132.5T798 427l-9 1H683v170h106q78 0 133.5 53.5T981 781v9q0 80-56 136t-136 56q-77 0-132.5-53T598 799l-1-9V684H427v106q0 78-53.5 133.5T244 982h-9q-80 0-136-56T43 790q0-77 53-132.5T226 599l9-1h106V428H235q-78 0-133.5-53.5T43 245v-9q0-80 56-136t136-56q77 0 132.5 53T426 227l1 9v106h170V236q0-78 53.5-133.5T780 44h9zM341 684H235q-45 0-76 31t-31 75q0 45 31 76t76 31q42 0 72.5-29t33.5-71V684zm448 0H683v106q0 45 31 76t75 31q45 0 76-31t31-76q0-42-29-72.5T796 684h-7zM597 428H427v170h170V428zM235 129q-45 0-76 31t-31 76q0 42 29 72.5t71 33.5h113V236q0-41-26.5-71T249 130l-7-1h-7zm554 0q-42 0-72.5 29T683 229v113h106q41 0 71-26.5t35-65.5l1-7v-7q0-45-31-76t-76-31z"/></svg>