<svg viewBox="0 0 1024 1039" xmlns="http://www.w3.org/2000/svg"><path d="M427 129q62 0 116 23 54 24 94.5 64.5T702 311q23 55 23 117 0 50-15.5 95.5T666 607l4 4 214 213q12 13 12 30.5T884 885q-12 11-28 12t-29-9l-4-3-213-214-2-2-2-2q-38 28-83.5 43.5T427 726q-62 0-117-23-54-24-94.5-64.5T151 544q-23-54-23-116t23-117q24-54 64.5-94.5T310 152q55-23 117-23zm0 85q-45 0-83 17-39 17-68 46t-46 68q-17 38-17 83 0 44 17 83t46 67.5q29 28.5 68 45.5 38 17 83 17 44 0 83-17t67.5-45.5Q606 550 623 511t17-83q0-45-17-83-17-39-45.5-68T510 231q-39-17-83-17zm85 171q18 0 30.5 12.5T555 428q0 16-11 28t-27 14H341q-17 0-29.5-12.5T299 428q0-17 10.5-29t26.5-14h176z"/></svg>