<svg viewBox="0 0 1024 1039" xmlns="http://www.w3.org/2000/svg"><path d="M191 86q-5 0-8.5 3.5T179 98v6q0 30-23 53.5T103 181h-5q-5 0-9 3.5t-4 8.5q0 5 4 8.5t9 3.5h5q30 0 53 23.5t23 53.5v6q0 5 3.5 8.5t8.5 3.5q5 0 8.5-3.5t3.5-8.5v-6q0-30 24-53.5t54-23.5h5q5 0 9-3.5t4-8.5q0-5-4-8.5t-9-3.5h-5q-30 0-54-23.5T203 104v-6q0-5-3.5-8.5T191 86zm171 171q-3 0-5 2t-2 5v4q0 17-14 31.5T309 314h-3q-3 0-5 2t-2 5q0 3 2 5t5 2h3q18 0 32 14.5t14 31.5v4q0 3 2 5t5 2q3 0 5-2t2-5v-4q0-17 14.5-31.5T416 328h3q3 0 5.5-2t2.5-5q0-3-2.5-5t-5.5-2h-3q-18 0-32.5-14.5T369 268v-4q0-3-2-5t-5-2zm336 60q0 84-27 154t-79 120q-52 51-123.5 77T312 694q-32 0-61-3.5T195 679q23 41 55 74 32 32 71.5 55t86.5 34q47 12 100 12 79 0 144-26 66-26 113-72.5T838 645q26-63 26-138 0-54-13-103-14-49-38.5-91T754 238q-34-33-75-54 9 28 14 63t5 70zM597 108q20-21 45-21t43 6l1 1q60 23 108 65 49 42 83.5 96T931 374q18 64 18 133 0 93-33 172t-91.5 137Q766 874 685 907t-177 33q-69 0-130-17-62-17-113.5-49.5T172 795q-40-47-67-106-8-18-8.5-43.5T116 601h1q18-17 40-17t38 5h.5q.5 0 .5 1 23 9 52 14t64 5q72 0 127.5-21t92.5-58q38-36 59.5-89.5T613 317q0-40-7-73.5T592 195l-1-1q-8-17-10-40t14-44q1 0 1.5-.5t.5-1.5z"/></svg>