<svg viewBox="0 0 1024 1039" xmlns="http://www.w3.org/2000/svg"><path d="M252 86h-6q-22 0-40 .5T173 91q-46 11-80 45t-46 81q-3 15-3.5 32.5T43 290v275q0 23 .5 40.5T47 638q12 47 46 81t80 45q15 4 33 4.5t40 .5h181v85h-64q-18 0-30.5 12.5T320 897q0 18 12.5 30.5T363 940h213q18 0 30.5-12.5T619 897q0-18-12.5-30.5T576 854h-64v-85h64q18 0 30.5-12.5T619 726q0-17-12.5-29.5T576 684H252q-29 0-40.5-.5T193 681q-23-5-40-22t-23-41q-1-6-1.5-17.5T128 560V295q0-28 .5-39.5T130 237q6-23 23-40t40-23q7-2 18.5-2h516q11.5 0 17.5 2 24 6 41 23t22 40q2 7 2.5 18.5t.5 39.5v69q0 17 12.5 29.5T853 406q18 0 30.5-12.5T896 364v-74q0-23-.5-40.5T891 217q-11-47-45-81t-81-45q-15-4-32.5-4.5T692 86H252zm576 384h-2q-12 0-23 .5t-21 .5q-10 1-20.5 3.5T741 482q-15 8-27 20t-20 27q-5 10-7.5 20.5T684 570q-1 9-1 20v230q0 11 1 20 0 10 2.5 20.5T694 881q8 15 20 27t27 20q10 5 20.5 7.5T782 939q10 0 21 .5t23 .5h12q12 0 23-.5t21-.5q10-1 20.5-3.5T923 928q15-8 27-20t20-27q5-10 7.5-20.5T980 840q1-9 1-20V614v-24q0-11-1-20 0-10-2.5-20.5T970 529q-8-15-20-27t-27-20q-10-5-20.5-7.5T882 471q-10 0-21-.5t-23-.5h-10zm-48 88h.5q.5 0 .5-1h3q2 0 5-1h86q3 1 5 1h3q0 1 .5 1h.5q3 2 5.5 4t4.5 5v2q0 1 .5 3t.5 5q1 6 1 15v226q0 9-1 15 0 3-.5 5t-.5 3v2q-2 3-4.5 5t-5.5 4h-.5q-.5 0-.5 1h-3q-2 0-5 1h-86q-3-1-5-1h-3q0-1-.5-1h-.5q-3-2-5.5-4t-4.5-5v-1-1q0-1-.5-3t-.5-5q-1-6-1-15V615v-23q0-9 1-15 0-3 .5-5t.5-3v-1-1q2-3 4.5-5t5.5-4z"/></svg>