<svg viewBox="0 0 1024.0021 1039" xmlns="http://www.w3.org/2000/svg"><path d="M484 32q-8 4-14.5 11T459 59L345 331 52 356q-23 2-38.5 20T0 418l1 6q2 10 6.5 18T19 456l223 194-67 289q-5 23 7.5 43t35.5 26l6 1q10 1 19.5-1t17.5-7l251-153 251 153q21 12 44 6.5t35-26.5l3-5q4-9 5-18.5t-1-18.5l-67-289 223-194q17-15 19-39t-14-42l-4-4q-7-7-16-10.5t-18-4.5l-293-25L565 59q-9-22-31-31t-44 1l-6 3zm28 122l95 226 3 5q6 12 18.5 20t26.5 9l244 21-186 162-4 4q-10 11-13.5 24.5T695 653l56 240-209-127-6-3q-13-6-27-5t-27 8L273 893l56-240 1-6q2-14-3.5-27.5T311 597L125 435l244-21q16-1 29-10.5t19-23.5l95-226z"/></svg>