<svg viewBox="0 0 1024 1039" xmlns="http://www.w3.org/2000/svg"><path d="M256 172q-35 0-60 25t-25 60v128q0 18 12.5 30.5T213 428q18 0 30.5-12.5T256 385V257h128q18 0 30.5-12.5T427 214q0-17-12.5-29.5T384 172H256zm0 469q0-18-12.5-30.5T213 598q-17 0-29.5 12.5T171 641v128q0 35 25 60t60 25h128q18 0 30.5-12.5T427 812q0-18-12.5-30.5T384 769H256V641zm341-427q0-17 12.5-29.5T640 172h128q35 0 60 25t25 60v128q0 18-12.5 30.5T811 428q-18 0-30.5-12.5T768 385V257H640q-18 0-30.5-12.5T597 214zm256 427q0-18-12.5-30.5T811 598q-18 0-30.5 12.5T768 641v128H640q-18 0-30.5 12.5T597 812q0 17 12.5 29.5T640 854h128q35 0 60-25t25-60V641z"/></svg>