<svg viewBox="0 0 1024 1039" xmlns="http://www.w3.org/2000/svg"><path d="M128 470v154q0 72 2 117t21 82q16 30 39.5 54t53.5 39q38 19 83 21.5t117 2.5h136q72 0 117-2.5t82-21.5q31-15 54.5-39t39.5-54q19-37 21-82t2-117V470h-85v154q0 72-2.5 107.5T797 784q-9 18-23.5 32.5T741 840q-18 9-53.5 11.5T580 854H444q-72 0-107.5-2.5T283 840q-18-9-32.5-23.5T227 784q-9-17-11.5-52.5T213 624V470h-85zm128-256q-70 0-120.5 50.5T85 385q0 53 38 90.5t90 37.5h598q52 0 90-37.5t38-90.5q0-70-50.5-120.5T768 214H256zm0 86h512q36 0 60.5 24.5T853 385q0 18-12 30.5T811 428H213q-18 0-30-12.5T171 385q0-36 24.5-60.5T256 300zM405 1q-61 0-105 44t-44 105q0 62 44 106t105 44h150V150q0-61-44-105T405 1zm0 85q27 0 45.5 18.5T469 150v64h-64q-27 0-45.5-18.5T341 150q0-27 18.5-45.5T405 86zM619 1q-62 0-106 44t-44 105v150h150q61 0 105-44t44-106q0-61-44-105T619 1zm0 85q27 0 45.5 18.5T683 150q0 27-18.5 45.5T619 214h-64v-64q0-27 18.5-45.5T619 86zM469 214v683h86V214h-86z"/></svg>