<svg viewBox="0 0 1024 1039" xmlns="http://www.w3.org/2000/svg"><path d="M256 300q0-36 25-61t60-25q36 0 61 25t25 61q0 35-25 60t-61 25q-35 0-60-25t-25-60zm85-171q-70 0-120 50t-50 121q0 70 50 120t120 50q71 0 121-50t50-120q0-71-50-121t-121-50zM100 680q23-23 80-52.5T341 598q105 0 161.5 29.5T582 680q7 7 11 18.5t4 28.5q0 18-12 30t-29 12H127q-17 0-29.5-12T85 727q0-17 4-28.5t11-18.5zm241-167q-61 0-109 10-48 11-85 26.5T83 584q-26 19-43 36-24 23-32 52t-8 55q0 53 37 90t90 37h429q52 0 89.5-37t37.5-90q0-26-8.5-55T643 620q-18-17-44-36t-63-34.5Q499 534 451 523q-49-10-110-10zm363 78q1-18 14-30t30-11q96 4 153.5 34.5T988 643q21 21 28.5 47t7.5 49q0 48-33.5 81.5T909 854H768q-18 0-30.5-12.5T725 812q0-18 12.5-30.5T768 769h141q12 0 21-8.5t9-21.5q0-13-3.5-22t-7.5-14q-18-18-61.5-41T745 635q-18 0-30-13t-11-31zm-43-227q0-27 19-45.5t45-18.5q27 0 45.5 18.5T789 364q0 26-18.5 45T725 428q-26 0-45-19t-19-45zm64-150q-62 0-105.5 44T576 364q0 62 43.5 105.5T725 513q62 0 106-43.5T875 364q0-62-44-106t-106-44z"/></svg>