<svg viewBox="0 0 1024 1039" xmlns="http://www.w3.org/2000/svg"><path d="M203 329q-24 20-44.5 41.5T123 413q-16 23-27 49t-11 51q0 25 11 51t27 49q17 24 40 48t51 45q29 22 62 41 34 19 71.5 33.5T427 803q41 9 85 9 39 0 76.5-7t72.5-19l-69-69q-20 5-40 7t-40 2q-71 0-134.5-25T266 639q-23-19-41.5-38T193 564q-13-19-17.5-32t-4.5-19q0-6 4.5-19t17.5-32q12-17 30-36t41-37l-61-60zm181 181v3q0 53 37.5 90.5T512 641h3L384 510zm242 61L454 399q13-7 27.5-10.5T512 385q53 0 90.5 37.5T640 513q0 16-3.5 30.5T626 571zm94 94q10-7 19.5-13t18.5-13q23-19 41.5-38t31.5-37q13-19 17.5-32t4.5-19q0-6-4.5-19T831 462q-13-18-31.5-37T758 387q-48-37-111.5-62T512 300q-35 0-68.5 6.5T380 324l-66-65q44-20 94-32.5T512 214q44 0 85 9 42 8 79.5 22.5T748 279q33 19 62 41 28 21 51 45t40 48q16 23 27 49t11 51q0 25-11 51t-27 49q-17 24-40 48t-51 45l-14 10-14 10-62-61zM98 99q12-13 30-13t30 13l768 768q13 12 13 30t-13 30q-12 13-30 13t-30-13L98 159q-13-12-13-30t13-30z"/></svg>