<svg viewBox="0 0 1024 1039" xmlns="http://www.w3.org/2000/svg"><path d="M384 385q0-53 20-100 20-46 55-81t81-55q47-20 100-20t100 20q46 20 81 55t55 81q20 47 20 100t-20 100q-20 46-55 81t-81 55q-47 20-100 20t-100-20q-46-20-81-55t-55-81q-20-47-20-100zm-84-26q-1 6-1 12.5V385q0 59 19 112.5t52 96.5L98 867q-13 12-13 30t13 30q12 13 30 13t30-13l273-272q43 33 96.5 52T640 726h13.5q6.5 0 12.5-1L524 867q-12 12-12 30t12 30q13 13 30.5 13t30.5-13l299-298q3-4 5-7.5t4-7.5q41-45 64.5-104T981 385q0-71-26-133-27-62-73.5-108.5T773 70q-62-26-133-26-66 0-125 23.5T411 132q-4 2-7.5 4t-7.5 5L98 440q-13 13-13 30.5T98 501q12 12 30 12t30-12l142-142z"/></svg>