<svg viewBox="0 0 1024 1039" xmlns="http://www.w3.org/2000/svg"><path d="M94 187q-13 25-15 61.5T77 349v20q10-4 20.5-5.5T118 361q14-1 31.5-1.5t37.5-.5h650q20 0 37.5.5T906 361q10 1 20 2.5t20 4.5q-1-26-4.5-44.5T930 290q-11-22-28-39t-39-28q-24-13-60.5-15T701 206h-56q-15 0-24-.5t-17-2.5q-6-1-12.5-3.5T580 193q-7-4-13.5-10T549 166l-23-23q-11-11-17.5-17T496 116q-6-4-12-6.5t-13-3.5q-7-2-16.5-2.5T430 103H323q-65 0-101.5 2.5T161 120q-22 11-39 28.5T94 187zm853 439v-52-37q0-15-1-26-1-10-2-14.5t-2-6.5q-4-7-10-13t-13-10q-2-1-6.5-2t-14.5-2q-11-1-26-1H152q-15 0-26 1-10 1-14.5 2t-6.5 2q-7 4-13 10t-10 13q-1 2-2 6.5T78 511q-1 11-1 26v89q0 64 2 100.5T94 788q11 21 28 38.5t39 28.5q24 12 60.5 14t101.5 2h378q65 0 101.5-2t60.5-14q22-11 39-28.5t28-38.5q13-25 15-61.5t2-100.5z"/></svg>