<svg viewBox="0 0 1024 1039" xmlns="http://www.w3.org/2000/svg"><path d="M286 440q12 12 12.5 28t-8.5 28l-4 5-64 64q-49 49-49 118.5T222 803q48 48 115 49.5T454 809l6-6 64-64q13-13 30.5-13t30.5 13q11 11 12 27.5t-9 28.5l-3 4-64 64q-37 37-84 56t-95.5 19q-48.5 0-95.5-19t-84-56q-36-36-55-81-19-46-19.5-93.5T103 595q17-46 51-83l8-8 64-64q12-12 30-12t30 12zm299 0q11 12 12 28t-9 28l-3 5-171 170q-12 13-30 13t-30-13q-12-11-12.5-27.5T350 615l4-4 170-171q13-12 30.5-12t30.5 12zm279-279q37 36 55 81 19 46 20 93t-16 93q-17 46-51 84l-8 8-64 64q-12 12-30 12t-30-12q-12-12-12.5-28t8.5-29l4-4 64-64q49-49 49-119t-49-119q-48-48-115-49.5T572 215l-6 6-64 64q-13 13-30.5 13T441 285q-11-12-12-28t9-28l3-4 64-64q37-37 84-56t96-19q49 0 95 19 47 19 84 56z"/></svg>