<svg viewBox="0 0 1024 1039" xmlns="http://www.w3.org/2000/svg"><path d="M256 428q0-53 20-100t55-81.5q35-34.5 81-54.5 47-20 100-20t100 20q46 20 81 54.5t55 81.5q20 47 20 100 0 42-9 86-9 43-24 84.5T699 680q-20 39-43 74-23 34-47 62t-45 47q-11 10-20.5 16.5T527 891q-7 4-10.5 5t-4.5 1q-1 0-4.5-1t-10.5-5q-7-5-16.5-11.5T460 863q-21-19-45-47t-47-62q-23-35-43-74-21-40-36-81.5T265 514q-9-44-9-86zM512 86q-71 0-133 27t-108.5 73.5Q224 233 197 295q-26 62-26 133 0 51 10 101 10 51 27.5 99t40.5 92q23 43 48 81 26 38 53 70t53 56q13 11 26.5 21t25.5 17q13 7 27.5 12t29.5 5q15 0 29.5-5t27.5-12q12-7 25.5-17t26.5-21q26-24 53-56t53-70q25-38 48-81 23-44 40.5-92t27.5-99q10-50 10-101 0-71-26-133-27-62-73.5-108.5T645 113q-62-27-133-27zm0 427q35 0 60-25t25-60q0-36-25-61t-60-25q-35 0-60 25t-25 61q0 35 25 60t60 25z"/></svg>