<svg viewBox="0 0 1024 1039" xmlns="http://www.w3.org/2000/svg"><path d="M240 362l68 68q-10 1-16 3t-11 4q-12 6-21.5 15.5T244 474q-3 5-5 13t-3 22l-1 14v236l1 14q1 14 3 22t5 13q6 12 15.5 21.5T281 845q5 3 13 5t22 3h7l15 1h356q4-1 7.5-1h6.5q6-1 11-1.5t9-1.5l65 65q-3 1-6 3t-6 3q-15 8-31.5 11.5T715 938q-10 1-21.5 1t-23.5 1H367q-17 0-31-.5t-27-1.5q-18-2-34.5-5.5T243 921q-25-12-44-31t-31-44q-8-15-11.5-31.5T151 780q-1-10-1-21.5t-1-23.5V560q0-17 .5-31t1.5-27q2-18 5.5-34.5T168 436q12-24 30.5-43t41.5-31zM512 44q49 0 91 18 43 19 75 50.5t50 74.5q19 43 19 91v71q9 2 17.5 5t16.5 7q25 12 44 31t31 44q8 15 11.5 31.5T873 502q1 10 1 21.5t1 23.5v175q0 17-.5 31t-1.5 27q-1 7-2 14.5t-2 14.5l57 58q13 12 13 30t-13 30q-12 13-30 13t-30-13L98 159q-13-12-13-30t13-30q12-13 30-13t30 13l126 125q9-39 30-72t51-57q30-24 68-38 37-13 79-13zm138 384H487l302 302V523l-1-14q-1-14-3-22t-5-13q-6-12-15.5-21.5T743 437q-5-3-13-5t-22-3h-7l-15-1h-36zM512 129q-60 0-103 41t-46 100v33l39 39h259v-64q0-62-43.5-105.5T512 129z"/></svg>