<svg viewBox="0 0 1024 1039" xmlns="http://www.w3.org/2000/svg"><path d="M399 86h70q18 0 30.5 12.5T512 129q0 18-12.5 30.5T469 172H338.5q-26.5 0-46.5 2-19 1-31 4t-20 8q-19 9-33 23t-23 33q-5 8-8 20t-4 31q-2 20-2 46.5v347q0 26.5 2 46.5v3q0 2 1 4l66-109q10-16 19-30t17-25q8-11 19-21.5t25-16.5q21-9 43-9t42 9q15 6 25.5 16.5T449 576q8 11 17 25t19 30l6 9q9 15 5 32t-20 27q-15 9-32 5t-26-19l-4-7q-12-18-19.5-30.5T381 627q-5-7-7.5-9l-2.5-2q-4-2-8.5-2t-8.5 2l-2.5 2q-2.5 2-7.5 9-6 8-13.5 20.5T312 678l-92 149q5 4 10 7.5t11 5.5q8 5 20 8t31 4q20 2 46.5 2H469q18 0 30.5 12.5T512 897q0 18-12.5 30.5T469 940h-70q-34 0-62.5-.5T286 937q-24-2-44.5-6.5T202 916q-30-15-54-39t-39-54q-10-19-14.5-39.5T88 740q-2-23-2.5-51.5T85 626V400q0-34 .5-62.5T88 286q2-23 6.5-43.5T109 203q15-30 39-54t54-39q19-10 39.5-14.5T286 89q22-2 50.5-2.5T399 86zm262 43q0 18-12.5 30.5T619 172q-18 0-30.5-12.5T576 129q0-18 12.5-30.5T619 86q17 0 29.5 12.5T661 129zm11 181q0 22-15.5 38T619 364q-22 0-38-16t-16-38q0-22 16-37.5t38-15.5q22 0 37.5 15.5T672 310zm-53 267q26 0 45-18.5t19-45.5q0-27-19-45.5T619 449q-27 0-45.5 18.5T555 513q0 27 18.5 45.5T619 577zm170-11q22 0 38-15.5t16-37.5q0-22-16-37.5T789 460q-22 0-37.5 15.5T736 513q0 22 15.5 37.5T789 566zM619 769q22 0 37.5-15.5T672 716q0-22-15.5-38T619 662q-22 0-38 16t-16 38q0 22 16 37.5t38 15.5zm362-256q0 18-12.5 30.5T939 556q-18 0-30.5-12.5T896 513q0-18 12.5-30.5T939 470q17 0 29.5 12.5T981 513zM619 940q17 0 29.5-12.5T661 897q0-18-12.5-30.5T619 854q-18 0-30.5 12.5T576 897q0 18 12.5 30.5T619 940zm170-171q18 0 30.5-12.5T832 726q0-17-12.5-29.5T789 684q-17 0-29.5 12.5T747 726q0 18 12.5 30.5T789 769zm43-459q0 18-12.5 30.5T789 353q-17 0-29.5-12.5T747 310q0-17 12.5-29.5T789 268q18 0 30.5 12.5T832 310zm-43-149q14 0 23-9.5t9-22.5q0-13-9-22.5T789 97q-13 0-22.5 9.5T757 129q0 13 9.5 22.5T789 161zm182 149q0 14-9.5 23t-22.5 9q-14 0-23-9t-9-23q0-13 9-22.5t23-9.5q13 0 22.5 9.5T971 310zm-32 448q13 0 22.5-9t9.5-23q0-13-9.5-22.5T939 694q-14 0-23 9.5t-9 22.5q0 14 9 23t23 9zm21 139q0 9-6 15t-15 6q-9 0-15.5-6t-6.5-15q0-9 6.5-15t15.5-6q9 0 15 6t6 15zm-21-747q9 0 15-6t6-15q0-9-6-15t-15-6q-9 0-15.5 6t-6.5 15q0 9 6.5 15t15.5 6zM821 897q0 13-9 22.5t-23 9.5q-13 0-22.5-9.5T757 897q0-13 9.5-22.5T789 865q14 0 23 9.5t9 22.5z"/></svg>