<svg viewBox="0 0 1024 1039" xmlns="http://www.w3.org/2000/svg"><path d="M320 257q0-80 56-136t136-56q80 0 136 56t56 136v213q0 80-56 136t-136 56q-80 0-136-56t-56-136V257zm192-107q-44 0-75.5 31.5T405 257v213q0 45 31.5 76t75.5 31q44 0 75.5-31t31.5-76V257q0-44-31.5-75.5T512 150zM192 428q18 0 30.5 12.5T235 470q0 58 21 108 22 51 60 88.5t88 59.5q51 22 108 22t108-22q50-22 88-59.5t60-88.5q21-50 21-108 0-17 12.5-29.5T832 428q18 0 30.5 12.5T875 470q0 70-25 132t-68 110q-43 48-101 79-59 32-126 40v87q0 18-12.5 30.5T512 961q-18 0-30.5-12.5T469 918v-87q-67-8-126-40-58-31-101-79t-68-110q-25-62-25-132 0-17 12.5-29.5T192 428z"/></svg>