<svg viewBox="0 0 1024 1039" xmlns="http://www.w3.org/2000/svg"><path d="M512 513q63 0 116 8 54 9 98.5 25.5T806 589q36 25 62 60 13 18 20.5 39.5T896 733v48q0 48-34 82t-82 34H244q-48 0-82-34t-34-82v-48q0-23 7.5-44.5T156 649q26-35 62-60 35-26 79.5-42.5T396 521q53-8 116-8zm0 85q-107 0-178.5 26T224 700q-5 7-8 15.5t-3 17.5v48q0 13 9 22t22 9h536q13 0 22-9t9-22v-48q0-9-3-17.5t-8-15.5q-38-50-109.5-76T512 598zm0-512q71 0 121 50t50 121q0 71-50 121t-121 50q-71 0-121-50t-50-121q0-71 50-121t121-50zm0 86q-35 0-60 25t-25 60q0 35 25 60t60 25q35 0 60-25t25-60q0-35-25-60t-60-25z"/></svg>