<svg viewBox="0 0 1024 1039" xmlns="http://www.w3.org/2000/svg"><path d="M384 556q53 0 99 6 46 7 84.5 20.5T637 617q32 21 55 48 15 17 23 38t10 43v44q0 43-29 73.5T626 897H149q-42 0-72.5-29T43 797v-41q0-25 8.5-48.5T76 665q23-27 55-48 31-21 69.5-34.5T285 562q46-6 99-6zm0 85q-89 0-149.5 20T141 720q-5 7-8.5 14t-4.5 15v41q0 8 5 14t12 7l4 1h470q8 0 13.5-5t7.5-13v-38q0-10-3.5-19t-9.5-17q-33-39-93.5-59T384 641zm427-43q17 0 29.5 12.5T853 641q0 18-12.5 30.5T811 684q-18 0-30.5-12.5T768 641q0-18 12.5-30.5T811 598zm0-469q70 0 120 50t50 121q0 58-34 102.5T860 463l-7 2v27q0 16-10.5 28T816 534h-5q-17 0-29-10.5T768 497v-69q0-17 11-29t27-14h5q35 0 60-25t25-60q0-36-25-61t-60-25q-36 0-61 25t-25 61q0 17-12.5 29.5T683 342q-18 0-30.5-12.5T640 300q0-71 50-121t121-50zm-427 0q71 0 121 50t50 121q0 70-50 120t-121 50q-71 0-121-50t-50-120q0-71 50-121t121-50zm0 85q-35 0-60 25t-25 61q0 35 25 60t60 25q35 0 60-25t25-60q0-36-25-61t-60-25z"/></svg>