<svg viewBox="0 0 1024 1039" xmlns="http://www.w3.org/2000/svg"><path d="M813 940h-8q-70-5-138-21-68-17-131-45.5T416 805q-57-39-107-89t-89-107q-40-57-68.5-120T106 358q-16-68-21-138 0-12 2-24.5t6-24.5q4-12 11-22.5t15-19.5q9-10 20-18t23-13q12-6 25-9t26-3h75q23 0 45.5 8.5T373 119q18 15 29 36t14 45l11 107q1 15-.5 29.5T420 364q-4 14-12 26t-18 23L276 541q40 63 93 115.5T485 749l128-115q10-10 22-17.5t26-12.5q13-4 27.5-5.5t28.5-.5l109 13q23 2 44 13t37 29q15 18 23.5 40t8.5 46v73q0 13-3 26t-9 25q-5 12-13 23t-18 20q-17 16-38.5 24.5T813 940zM564 792q59 27 121 42.5T811 854q4 0 8-.5t7-1.5q4-2 7.5-4t6.5-5q3-3 5.5-6.5t4.5-7.5q2-4 2.5-8.5t.5-8.5v-75q0-7-2.5-14.5T843 709q-5-6-12-9.5t-15-4.5l-109-11q-4-1-9-.5t-9 2.5q-5 1-9 3.5t-8 6.5l-108 96zM213 172q-4 0-8.5.5T196 175q-4 2-8 4.5t-7 6.5l-4 6q-2 3-4 7-1 4-1.5 7.5t-.5 7.5q4 64 19.5 126T233 461l96-107q4-4 6.5-8t4.5-9q1-5 1.5-10t-.5-10l-11-107q-1-8-4.5-15t-9.5-13q-6-5-13.5-7.5T288 172h-75z"/></svg>