<svg viewBox="0 0 1024 1039" xmlns="http://www.w3.org/2000/svg"><path d="M488 153q37-38 83-56 47-19 95.5-19T761 97q47 18 84 56 29 30 44 68t15 77.5q0 39.5-15 77.5t-44 68L537 758q-39 40-95 40t-95-40q-48-49-48-116.5T347 525l150-153q13-13 30.5-13t30.5 12q12 12 12.5 30T558 431L408 585q-23 23-23 56.5t23 56.5q14 15 34 15t34-15l308-313q35-36 35-86.5T784 212q-49-49-118-49t-117 49L282 485q-32 32-48 73t-16 83.5q0 42.5 16 83.5t48 73q33 34 75 51 41 17 85 17t85-17q42-17 75-51l157-160q12-12 30-12.5t30 12.5q13 12 13 30t-12 30L663 858q-46 47-103 70-58 23-118 23t-118-23q-57-23-103-70-44-45-66-101-22-57-22-115.5T155 526q22-56 66-101l267-272z"/></svg>