<svg viewBox="0 0 1024 1039" xmlns="http://www.w3.org/2000/svg"><path d="M524 184q13-12 30.5-12t30.5 12l85 85q13 13 13 30.5T670 330q-12 12-30 12t-30-12l-86-85q-12-13-12-30.5t12-30.5zm146 85q13 13 13 30.5T670 330l-85 85q-13 13-30.5 13T524 415q-12-12-12-30t12-30l86-86q12-12 30-12t30 12zm-414 73q-18 0-30.5 12.5T213 385v128q0 18-12.5 30.5T171 556q-18 0-30.5-12.5T128 513V385q0-53 37.5-90.5T256 257h341q18 0 30.5 12.5T640 300q0 17-12.5 29.5T597 342H256zm635-211q8 16 2.5 33T872 189l-85 42q-16 8-32.5 2.5T730 212q-8-16-2.5-32.5T749 155l85-43q16-8 33-2.5t24 21.5zm-38-23q18 0 30.5 12.5T896 150v214q0 17-12.5 29.5T853 406q-17 0-29.5-12.5T811 364V150q0-17 12.5-29.5T853 108zM414 842q-12 12-30 12t-30-12l-86-85q-12-13-12-30.5t12-30.5q13-12 30.5-12t30.5 12l85 85q13 13 13 30.5T414 842zm-146-85q-12-13-12-30.5t12-30.5l86-85q12-13 30-13t30 13q13 12 13 30t-13 30l-85 86q-13 12-30.5 12T268 757zm500-73q18 0 30.5-12.5T811 641V513q0-18 12.5-30.5T853 470q18 0 30.5 12.5T896 513v128q0 53-37.5 90.5T768 769H384q-18 0-30.5-12.5T341 726q0-17 12.5-29.5T384 684h384z"/></svg>