<svg viewBox="0 0 1024 1039" xmlns="http://www.w3.org/2000/svg"><path d="M508 165q-11-13-26-20t-32-6q-14 1-24.5 7T408 158q-8 6-17.5 14T371 190L105 435l-10 10-9 9q-4 5-8.5 11T70 479q-4 11-4 23t4 23q3 9 7.5 15t8.5 11l9 9q5 5 10 9l266 246q10 9 19.5 17.5T408 847q7 6 17.5 12t24.5 6q17 1 32-5.5t26-19.5q9-10 12-22t4-22q0-10 .5-22t.5-27v-59q55 3 101 15 46 11 82 27.5t64 36.5q28 19 48 38l1 1q11 11 20.5 19.5T858 840q4 4 7.5 6.5t7.5 5.5q3 2 10 5t16 3q14 0 25.5-6t19.5-17q5-8 6.5-14.5T952 812v-8.5-9.5q-1-8-2.5-19t-3.5-25l-1-1q-8-60-32.5-134.5T836 474q-24-31-55-58t-69.5-47.5Q673 348 626 335q-46-13-101-17v-61q0-14-.5-26.5T524 208q-1-9-4-21t-12-22zm-55 48v2q0 7 .5 17.5t.5 26.5v94q0 15 10 25.5t25 10.5q109 0 179 37t112 92q44 55 65.5 120.5T875 760q-1-2-2.5-3.5T869 754q-26-25-62-50-36-24-83-44t-105-32q-59-12-130-12-7 0-13.5 3t-11.5 8q-5 5-7.5 11.5T454 652v94q0 16-.5 26.5T453 790v2q-1 0-1.5-.5l-.5-.5q-6-5-14-12t-19-18L155 518q-7-6-10.5-9.5L139 503l-.5-.5-.5-.5h1q2-3 5.5-6.5T155 487l263-244q11-10 19-17.5t14-11.5l.5-.5q.5-.5 1.5-.5zm428 594v0z"/></svg>