<svg viewBox="0 0 1024 1039" xmlns="http://www.w3.org/2000/svg"><path d="M213 428q0-45 17-83 17-39 46-68t68-46q38-17 83-17 44 0 83 17t67.5 46q28.5 29 45.5 68 17 38 17 83 0 44-17 83t-45.5 67.5Q549 607 510 624t-83 17q-45 0-83-17-39-17-68-45.5T230 511q-17-39-17-83zm214-299q-62 0-117 23-54 24-94.5 64.5T151 311q-23 55-23 117t23 116q24 54 64.5 94.5T310 703q55 23 117 23 50 0 95.5-15.5T606 667l2 2 2 2 213 214q13 12 30.5 12t30.5-12q12-13 12-30.5T884 824L670 611l-2-2-2-2q28-38 43.5-83.5T725 428q0-62-23-117-24-54-64.5-94.5T543 152q-54-23-116-23z"/></svg>