<svg viewBox="0 0 1024 1039" xmlns="http://www.w3.org/2000/svg"><path d="M512 44q97 0 183 37 85 36 149 100t100 149q37 86 37 183t-37 183q-36 85-100 149T695 945q-86 37-183 37t-183-37q-85-36-149-100T80 696q-37-86-37-183t37-183q36-85 100-149T329 81q86-37 183-37zm0 85q-80 0-149 30-70 30-122.5 82.5T158 364q-30 69-30 149t30 149q30 70 82.5 122.5T363 867q69 30 149 30t149-30q70-30 122.5-82.5T866 662q30-69 30-149t-30-149q-30-70-82.5-122.5T661 159q-69-30-149-30zm222 226q12 11 12.5 27.5T738 411l-4 4-256 256q-11 12-27.5 12.5T422 675l-4-4-107-106q-12-13-12-30.5t12-30.5q12-11 28-12t28 9l5 3 76 77 226-226q12-13 30-13t30 13z"/></svg>