<svg viewBox="0 0 1024 1039" xmlns="http://www.w3.org/2000/svg"><path d="M487 44h78q7 1 14.5 2.5T594 51q11 5 20.5 13T631 82q5 7 7.5 14t4.5 14q1 6 2.5 12.5T648 136v1l8 50q17 7 32.5 16t30.5 20l45-17q7-2 13.5-4.5T789 197q7-2 14.5-3t16.5-1q12 1 23.5 5.5T865 210q7 5 12 11t8 11q4 5 7.5 11t6.5 12l28 48 6 12q3 6 6 11 3 6 5.5 13.5T947 355q2 12-.5 24t-7.5 22q-3 8-8 14t-10 10q-4 4-9 8.5t-10 9.5l-39 33q1 9 1.5 18.5t.5 18.5q0 9-.5 18.5T863 550l39 33q5 5 10 9.5t9 8.5q5 4 10 10t8 14q5 10 7.5 22t.5 24q0 8-2.5 15.5T939 700q-3 5-6 11l-6 12-28 48q-3 6-6.5 12t-7.5 11q-3 5-8 11t-12 11q-10 7-21.5 11.5T820 833q-9 0-16.5-1t-14.5-3q-5-2-11.5-4.5T764 820l-45-17q-15 11-30.5 20T656 839l-8 50v1q-1 7-2.5 13.5T643 916q-2 7-4.5 14t-7.5 14q-7 10-16.5 18T594 975q-7 3-14.5 4.5T565 982H459q-6-1-13.5-2.5T430 975q-11-5-20.5-13T393 944q-5-7-7.5-14t-4.5-14q-1-6-2.5-12.5T376 890l-8-51q-17-7-32.5-16T305 803l-45 17q-7 2-13.5 4.5T235 829q-7 2-14.5 3t-16.5 1q-12-1-23.5-5.5T159 816q-7-5-12-11t-8-11q-4-5-7.5-11t-6.5-12l-28-48-6-12q-3-6-6-11-3-6-5.5-13.5T77 671q-2-12 .5-24t7.5-22q3-8 8-14t10-10q4-4 9-8.5t10-9.5l39-33q-1-9-1.5-18.5T159 513q0-9 .5-18.5T161 476l-39-33q-5-5-10-9.5t-9-8.5q-5-4-10-10t-8-14q-5-10-7.5-22t-.5-24q0-9 2.5-16t5.5-13q3-5 6-11l6-12 28-48q3-6 6.5-12t7.5-11q3-5 8-11t12-11q10-7 21.5-11.5T204 193q9 0 16.5 1t14.5 3q5 2 11.5 4.5T260 206l45 17q15-11 30.5-20t32.5-16l8-51q1-7 2.5-13.5T381 110q2-7 4.5-14t7.5-14q7-10 16.5-18T430 51q8-3 15.5-4.5T459 44h28zm-21 85h-1-1v2q-1 3-1.5 7.5T460 152l-12 72q-2 12-9.5 20.5T420 257q-22 8-42 20t-37 27q-9 7-20.5 9t-22.5-2l-67-25q-7-2-12-4t-8-3h-1v.5q0 .5-1 .5-1 3-3.5 7t-7.5 11l-26 46-6 12q-2 4-4 7v1l1 1q2 2 5.5 5t9.5 8l56 48q9 8 13 18.5t2 21.5q-2 12-3 23.5t-1 23.5q0 12 1 23.5t3 23.5q2 11-2 21.5T234 600l-56 48q-6 5-9.5 8t-5.5 5l-1 1v1q2 3 4 7l6 12 26 46q5 7 7.5 11t3.5 7h.5q.5 0 .5 1h1q3-1 8-3t12-4l67-25q11-4 22.5-2t20.5 9q17 15 37 27t42 20q11 4 18.5 12.5T448 802l12 72q2 9 2.5 13.5t1.5 7.5v2h96v-1-1q1-3 1.5-7.5T564 874l12-72q2-12 9.5-20.5T604 769q22-8 42-20t37-27q9-7 20.5-9t22.5 2l67 25q7 2 12 4t8 3h1v-.5q0-.5 1-.5 1-3 3.5-7t7.5-11l26-46 6-12q2-4 4-7v-.5-.5-.5q0-.5-1-.5-2-2-5.5-5t-9.5-8l-56-48q-9-8-13-18.5t-2-21.5q2-12 3-23.5t1-23.5q0-12-1-23.5t-3-23.5q-2-11 2-21.5t13-18.5l56-48q6-5 9.5-8t5.5-5l1-1v-.5-.5q-2-3-4-7l-6-12-26-46q-5-7-7.5-11t-3.5-7l-.5-.5-.5-.5h-1q-3 1-8 2.5t-12 4.5l-67 25q-11 4-22.5 2t-20.5-9q-17-15-37-27t-42-20q-11-4-18.5-12.5T576 224l-12-72q-2-9-2.5-13.5T560 131v-1-1h-1-93zm46 469q35 0 60-25t25-60q0-35-25-60t-60-25q-35 0-60 25t-25 60q0 35 25 60t60 25z"/></svg>