<svg viewBox="0 0 1024 1039" xmlns="http://www.w3.org/2000/svg"><path d="M43 359q0-71 2-111.5T61 180q13-25 32-44t43-31q27-14 67.5-16.5T316 86h307q72 0 112 2.5t68 16.5q24 12 43 31t31 44q14 27 16.5 67.5T896 359v163l-58-53q-12-11-23.5-22T792 428q-10-7-29-18t-46-13q-30-1-57.5 11T612 443q-14 17-19.5 35.5T585 510q-56 10-101 34t-79 58q-39 38-63 82t-38 85q-66 0-104-2.5T136 750q-24-12-43-31t-32-43q-14-28-16-68t-2-112V359zm740 175l119 110q14 13 21.5 21t10.5 16q2 6 2 13t-2 14q-3 8-10.5 15.5T902 744L783 855q-28 25-43.5 37.5T713 906q-10 1-19.5-3T678 891q-8-9-9-29t-1-57v-4q-69 0-120.5 16T461 856q-36 23-54.5 34T382 900q-6-1-10-4t-6-8q-3-6 1-23t12-49q3-11 7-23t9-24q14-34 36-67t54.5-58q32.5-25 77.5-41 45-15 105-15v-4q0-37 1-57t9-29q1-1 1.5-2t1.5-2q7-6 15-9t17-2h2.5q1.5 0 3.5 1 11 3 25.5 15.5T783 534z"/></svg>