<svg viewBox="0 0 1024 1039" xmlns="http://www.w3.org/2000/svg"><path d="M725 172q0-18-12.5-30.5T683 129q-18 0-30.5 12.5T640 172v128q0 35 25 60t60 25h128q18 0 30.5-12.5T896 342q0-17-12.5-29.5T853 300H725V172zm0 469q-35 0-60 25t-25 60v128q0 18 12.5 30.5T683 897q17 0 29.5-12.5T725 854V726h128q18 0 30.5-12.5T896 684q0-18-12.5-30.5T853 641H725zm-597 43q0-18 12.5-30.5T171 641h128q35 0 60 25t25 60v128q0 18-12.5 30.5T341 897q-17 0-29.5-12.5T299 854V726H171q-18 0-30.5-12.5T128 684zm256-512q0-18-12.5-30.5T341 129q-17 0-29.5 12.5T299 172v128H171q-18 0-30.5 12.5T128 342q0 18 12.5 30.5T171 385h128q35 0 60-25t25-60V172z"/></svg>