<svg viewBox="0 0 1024 1039" xmlns="http://www.w3.org/2000/svg"><path d="M508 54q-53 0-95.5.5T337 58q-35 3-64 9.5T218 87q-43 22-76.5 55.5T86 219q-13 26-19.5 55T57 338q-3 33-3.5 75.5T53 509v29q0 46 .5 82.5T56 686q2 29 7 54.5T78 789q23 53 64 94t94 64q23 10 48.5 15t54.5 7q26 2 57 2.5t70 .5h54q21-1 37.5-2t31.5-4q25-5 48-14.5t44-23.5q17-11 33.5-26.5T753 864l110-110q22-22 37.5-38.5T927 682q14-21 23.5-44t14.5-48q3-15 4-31.5t2-36.5v-8-12-4-31q0-39-.5-70t-2.5-57q-2-29-7-54.5T946 237q-23-53-64-94t-94-64q-23-10-48.5-15T685 57q-29-2-65.5-2.5T537 54h-29zm-13 832h-94q-31 0-56-2-26-2-44-5.5t-31-9.5q-39-17-68-46t-46-68q-6-13-9.5-31t-5.5-44q-2-27-2-61.5V511q0-55 .5-95.5T142 345q3-31 7.5-51.5T162 258q16-31 40-55t55-40q15-8 35.5-12.5T344 143q30-2 70.5-2.5t95.5-.5h107.5q34.5 0 61.5 2 26 2 44 5.5t31 9.5q39 17 68 46t46 68q6 13 9.5 31t5.5 44q2 27 2 61.5v126q0 .5-1 1.5l-1 .5q-1 .5-2 .5H724q-18 0-34 .5t-28 1.5q-14 1-27 3.5t-26 9.5q-19 10-34 25t-25 34q-7 13-9.5 26t-3.5 27q-1 9-1.5 20t-.5 23q-5 0-11 .5t-12 .5q-57 0-103-29.5T339 601q-8-15-24-20t-31 2q-15 8-20 24t3 31q34 67 99.5 108.5T512 788h11.5q5.5 0 11.5-1v95q0 1-.5 2l-.5 1q-1 1-1.5 1H495zm126-21v-4-134-33.5q0-13.5 1-23.5 0-10 1.5-14.5t2.5-6.5q4-7 9.5-12.5T648 627q2-1 6.5-2.5T669 623q10-1 23.5-1H864q-2 3-4 6.5t-4 6.5q-7 11-19 23.5T799 697L696 800q-26 26-38.5 38T634 857q-3 2-6.5 4t-6.5 4zM373 470q22 0 38-18.5t16-45.5q0-26-16-45t-38-19q-22 0-37.5 19T320 406q0 27 15.5 45.5T373 470zm331-64q0 27-15.5 45.5T651 470q-22 0-38-18.5T597 406q0-26 16-45t38-19q22 0 37.5 19t15.5 45z"/></svg>