<svg viewBox="0 0 1024 1039" xmlns="http://www.w3.org/2000/svg"><path d="M213 556q-17 0-29.5-12.5T171 513q0-16 10.5-28.5T208 471l5-1h118q-14-21-22.5-45.5T299 373v-31q0-68 47-117.5T461 172h94q70 0 120 50t50 120q0 18-12.5 30.5T683 385q-17 0-29-11t-14-27v-5q0-33-23-57.5T561 257h-92q-33 0-57.5 23T384 336v28q0 42 29 72.5t71 33.5h327q17 0 29.5 12.5T853 513q0 16-10.5 28.5T816 555l-5 1H693q14 21 22.5 45.5T725 653v31q0 68-47 117.5T563 854h-94q-70 0-120-50t-50-120q0-18 12.5-30.5T341 641q18 0 30.5 12.5T384 684q0 33 23 57.5t56 27.5h92q33 0 57.5-23t27.5-56v-28q0-42-29-72.5T540 556H213z"/></svg>