<svg viewBox="0 0 1024 1039" xmlns="http://www.w3.org/2000/svg"><path d="M171 257q-18 0-30.5 12.5T128 300q0 17 12.5 29.5T171 342h42q18 0 30.5-12.5T256 300q0-18-12.5-30.5T213 257h-42zm213 0q-18 0-30.5 12.5T341 300q0 17 12.5 29.5T384 342h469q18 0 30.5-12.5T896 300q0-18-12.5-30.5T853 257H384zm0 213q-18 0-30.5 12.5T341 513q0 18 12.5 30.5T384 556h469q18 0 30.5-12.5T896 513q0-18-12.5-30.5T853 470H384zm-43 256q0-17 12.5-29.5T384 684h469q18 0 30.5 12.5T896 726q0 18-12.5 30.5T853 769H384q-18 0-30.5-12.5T341 726zM128 513q0-18 12.5-30.5T171 470h42q18 0 30.5 12.5T256 513q0 18-12.5 30.5T213 556h-42q-18 0-30.5-12.5T128 513zm43 171q-18 0-30.5 12.5T128 726q0 18 12.5 30.5T171 769h42q18 0 30.5-12.5T256 726q0-17-12.5-29.5T213 684h-42z"/></svg>