<svg viewBox="0 0 1024 1039" xmlns="http://www.w3.org/2000/svg"><path d="M393 44h244q34 0 58.5 1t45.5 7q19 5 37 14t34 21q18 14 33.5 33t35.5 45l10 15q10 13 17.5 23.5T922 225q4 10 7.5 20.5T935 267q3 12 3.5 25t.5 30v304q0 34-.5 62.5T936 740q-2 23-6.5 43.5T915 823q-15 30-39 54t-54 39q-19 10-39.5 14.5T739 937q-23 2-51.5 2.5t-62.5.5H399q-34 0-62.5-.5T285 937q-23-2-43.5-6.5T202 916q-30-15-54-39t-39-54q-10-19-14.5-39.5T88 740q-2-23-2.5-51.5T85 626v-98-1.5V322q0-17 .5-30t3.5-25q2-11 5.5-21.5T102 225q6-11 13.5-21.5T133 180l10-15q20-26 35.5-45T212 87q16-12 34-21t37-14q21-6 45.5-7t58.5-1h6zm439 199q-2-3-5-6.5t-6-8.5l-5-7q-24-31-35-44.5T760 155q-9-7-20-12.5t-22-8.5q-12-3-29.5-4t-57.5-1H393q-40 0-57.5 1t-29.5 4q-11 3-22 8.5T264 155q-10 8-21 21.5T208 221l-5 7q-3 5-6 8.5t-5 6.5q2-1 4.5-2.5t5.5-2.5q19-10 39.5-14.5T285 217q23-2 51.5-2.5t62.5-.5h226q34 0 62.5.5T739 217q23 2 43.5 6.5T822 238q3 1 5.5 2.5t4.5 2.5zM171 530v156.5q0 26.5 2 46.5 1 19 4 31t8 20q9 19 23 33t33 23q8 5 20 8t31 4q20 2 46.5 2h347q26.5 0 46.5-2 19-1 31-4t20-8q19-9 33-23t23-33q5-8 8-20t4-31q2-20 2-46.5V530v-62.5q0-26.5-2-46.5-1-19-4-31t-8-20q-9-19-23-33t-33-23q-8-5-20-8t-31-4q-20-2-46.5-2h-347q-26.5 0-46.5 2-19 1-31 4t-20 8q-19 9-33 23t-23 33q-5 8-8 20t-4 31q-2 20-2 46.5V530zm183 120q12 12 30 12t30-12l98-98 98 98q12 12 30 12t30-12q13-13 13-30.5T670 589L542 461q-12-12-30-12t-30 12L354 589q-13 13-13 30.5t13 30.5z"/></svg>