<svg viewBox="0 0 1024 1039" xmlns="http://www.w3.org/2000/svg"><path d="M256 86h512q69 0 118 47.5T938 248l1 9v171q0 17-12.5 29.5T896 470q-16 0-28.5-10.5T854 433l-1-5V257q0-34-23-58.5T774 172H256q-34 0-58.5 23T171 251v586l94-94q6-7 14.5-11t18.5-5l6-1h251q17 0 29.5 12.5T597 769q0 16-10.5 28.5T560 811l-5 1H316L165 963q-13 13-32.5 13T99 963q-6-6-9-13t-4-15l-1-6V257q0-69 47.5-118T247 87l9-1zm555 427q70 0 120 50t50 121q0 70-50 120t-120 50q-71 0-121-50t-50-120q0-71 50-121t121-50zm0 85q-36 0-61 25t-25 61q0 35 25 60t61 25q35 0 60-25t25-60q0-36-25-61t-60-25z"/></svg>