<svg viewBox="0 0 1024 1039" xmlns="http://www.w3.org/2000/svg"><path d="M512 44q97 0 183 37 85 36 149 100t100 149q37 86 37 183 0 104-47 168t-122 67q-47 2-86.5-23T663 657q-28 30-67 47.5T512 722q-43 0-81-17-38-16-66.5-44.5T320 594q-17-38-17-81t17-81q16-38 44.5-66.5T431 321q38-17 81-17 36 0 69 12t59 32v-6q0-17 12.5-29.5T683 300q16 0 28 10.5t14 26.5v219q0 50 25 79t59 28q36-2 61.5-39.5T896 513q0-80-30-149-30-70-82.5-122.5T661 159q-69-30-149-30t-149 30q-70 30-122.5 82.5T158 364q-30 69-30 149t30 149q30 70 82.5 122.5T363 867q69 30 149 30 26 0 51-3.5t49-9.5q17-5 32.5 4t19.5 26q5 17-4 32.5T634 966q-30 8-60.5 12t-61.5 4q-97 0-183-37-85-36-149-100T80 696q-37-86-37-183t37-183q36-85 100-149T329 81q86-37 183-37zm0 346q-51 0-87 36t-36 87q0 51 36 87t87 36q51 0 87-36t36-87q0-51-36-87t-87-36z"/></svg>