<svg viewBox="0 0 1024 1039" xmlns="http://www.w3.org/2000/svg"><path d="M73 99Q60 86 42.5 86T12 99Q0 111 0 129t12 30l768 768q13 13 30.5 13t30.5-13q12-12 12-30t-12-30l-83-83q7-26 8.5-63.5T768 624V402q0-72-2.5-112T749 222q-12-24-31-43t-43-31q-28-14-68-16.5T495 129H316q-72 0-112.5 2.5T136 148q-2 1-4.5 2t-4.5 3L73 99zM43 402q0-51 .5-86t6.5-59l623 623q-28 13-68 15t-110 2H316q-72 0-112.5-2.5T136 878q-24-12-43-31t-32-43q-14-28-16-68t-2-112V402zm768 52v118q0 13 3.5 25t10.5 23l78 117q18 26 48 17t30-41V313q0-32-30-41t-48 17l-78 117q-7 11-10.5 23t-3.5 25z"/></svg>