<svg viewBox="0 0 1024 1039" xmlns="http://www.w3.org/2000/svg"><path d="M512 44q16 0 28.5 10.5T554 81l1 5v43h21q52 0 98 19 45 19 79.5 52.5T809 279q21 45 23 96v95h21l8 1q48 2 82.5 36.5T981 591v140q-2 16-14 27t-28 11q-17 0-29-11t-14-27V593q-2-14-12.5-24.5T858 556h-26v213q0 69-47 118t-115 52l-9 1H363q-69 0-118-47.5T192 778V556h-21q-17 0-29 10.5T128 593v133q0 18-12.5 30.5T85 769q-16 0-28-11t-14-27V598q0-51 35-88t85-39l8-1h21v-85q0-52 19-98 19-45 52.5-79.5T342 152q45-21 96-23h31V86q0-17 12.5-29.5T512 44zm200 511l-8 1H320q-11 0-22-2t-21-6v221q0 34 23 58.5t56 26.5h305q34 0 58.5-23t26.5-56l1-6V548q-9 3-17.5 5t-17.5 2zM576 214H448q-69 0-118 47.5T278 376l-1 9v43q0 16 11 28t27 14h389q16 0 28.5-10.5T746 433l1-5v-43q0-69-47.5-118T585 215l-9-1zM405 321q18 0 30.5 12.5T448 364q0 17-12.5 29.5T405 406q-17 0-29.5-12.5T363 364q0-18 12.5-30.5T405 321zm214 0q17 0 29.5 12.5T661 364q0 17-12.5 29.5T619 406q-18 0-30.5-12.5T576 364q0-18 12.5-30.5T619 321z"/></svg>