<svg viewBox="0 0 1024 1039" xmlns="http://www.w3.org/2000/svg"><path d="M367 53l5 3 51 52q20-10 42.5-16t46.5-6q24 0 46.5 6t42.5 16l51-52q13-12 30.5-12T713 56q11 12 12 28t-9 28l-3 5-50 49q10 16 15 33.5t5 36.5q0 10-2 20.5t-5 20.5q25 21 46.5 48.5T761 385l122-40 4-2 5-1q15-1 27.5 7t16.5 23q6 15-.5 30T914 424l-4 1-118 40q6 21 10.5 44t6.5 47h135q16 2 26.5 14t10.5 28q0 17-10.5 29T944 641H809q-2 24-6.5 46.5T792 732l118 39 4 2q15 7 21.5 22t.5 30q-5 16-19 24t-30 4l-4-1-122-40q-20 38-47 69-26 32-58 54.5T588 970q-37 12-76 12t-76-12q-36-12-68-34.5T310 882q-27-32-47-70l-122 40q-16 6-32-2t-21-25q-6-15 .5-30t21.5-22l5-2 117-39q-6-22-10.5-44.5T215 641H85q-17 0-29.5-12.5T43 598q0-16 10.5-28T80 556h135q2-24 6.5-47t10.5-44l-117-40q-17-5-25-21t-2-32q4-15 16.5-23t27.5-7l5 1 4 2 122 40q17-32 38.5-59.5T348 277q-3-10-5-20.5t-2-20.5q0-19 5-36.5t15-33.5l-50-49q-12-13-12-30.5T311 56q12-11 28-12t28 9zm145 247q-43 0-82 23-38 23-67.5 63.5T316 481q-17 55-17 117 0 63 17 118 17 54 46.5 94.5T430 874q39 23 82 23t82-23q38-23 67.5-63.5T708 716q17-55 17-118 0-62-17-117-17-54-46.5-94.5T594 323q-39-23-82-23zm0-128q-34 0-58 17.5T427 230q20-8 41.5-12t43.5-4q22 0 43.5 4t41.5 12q-3-23-27-40.5T512 172z"/></svg>