<svg viewBox="0 0 1024 1039" xmlns="http://www.w3.org/2000/svg"><path d="M622 86q17 0 33 6.5t28 18.5l60 61h68q53 0 90.5 37.5T939 300v469q0 53-37.5 90.5T811 897H213q-53 0-90.5-37.5T85 769V300q0-53 37.5-90.5T213 172h68l60-61q12-12 28-18.5t33-6.5h220zm0 86H402l-61 60q-12 12-27.5 18.5T281 257h-68q-17 0-29.5 12.5T171 300v469q0 18 12.5 30.5T213 812h598q17 0 29.5-12.5T853 769V300q0-18-12.5-30.5T811 257h-68q-17 0-32.5-6.5T683 232l-61-60zM512 300q44 0 83 16 39 17 68 46t46 68q16 39 16 83t-16 83q-17 39-46 68t-68 46q-39 16-83 16t-83-16q-39-17-68-46t-46-68q-16-39-16-83t16-83q17-39 46-68t68-46q39-16 83-16zm0 85q-53 0-90.5 37.5T384 513q0 53 37.5 90.5T512 641q53 0 90.5-37.5T640 513q0-53-37.5-90.5T512 385z"/></svg>