<svg viewBox="0 0 1024 1039" xmlns="http://www.w3.org/2000/svg"><path d="M848 684h5q17 0 29 10.5t14 26.5v91h85q17 0 29 10.5t14 26.5v5q0 17-11 29t-27 14h-90v85q0 17-11 29t-27 14h-5q-16 0-28-11t-14-27v-90h-86q-16 0-28-11t-14-27v-5q0-16 10.5-28t26.5-14h91v-86q0-16 10.5-28t26.5-14zM359 86h221q15 0 29 5.5t25 14.5l6 5 60 61h68q51 0 88 35t40 85v221q0 18-12.5 30.5T853 556q-16 0-28-11t-14-27V300q0-17-11-29t-27-14h-73q-15 0-29-5t-25-15l-6-5-60-60H359l-60 60q-11 11-24.5 17t-28.5 8h-75q-17 0-29 11t-14 27v474q0 16 11 28.5t27 13.5l5 1h384q17 0 29.5 12.5T597 854q0 17-10.5 29T560 897H171q-51 0-88-35t-40-85V300q0-51 35-88t85-40h75l61-61q10-10 24-16.5t29-7.5l7-1zm110 214q45 0 83 16 39 17 68 46t46 68q17 39 17 83t-17 83q-17 39-46 68t-68 46q-38 16-83 16-44 0-83-16-39-17-67.5-46T273 596q-17-39-17-83t17-83q17-39 45.5-68t67.5-46q39-16 83-16zm0 85q-53 0-90.5 37.5T341 513q0 53 37.5 90.5T469 641q53 0 90.5-37.5T597 513q0-53-37.5-90.5T469 385z"/></svg>