<svg viewBox="0 0 1024 1039" xmlns="http://www.w3.org/2000/svg"><path d="M981 854q0 53-37.5 90.5T853 982q-53 0-90.5-37.5T725 854H299q0 53-37.5 90.5T171 982q-51 0-88-35t-40-85V555q0-24 4-48t11-47l76-225q22-66 74.5-111.5T329 65q57-11 102.5-16t80.5-5q35 0 80.5 5T695 65q68 13 120.5 58.5T890 235l76 225q7 23 11 47t4 48v299zm-853-23v23q0 18 12.5 30.5T171 897q16 0 28-11t14-27v-5q-23 0-44.5-6T128 831zm683 23q0 18 12.5 30.5T853 897q18 0 30.5-12.5T896 854v-23q-19 11-40.5 17t-44.5 6zm74-367l-10-28q-11 6-23 9t-24 4l-10 1H206q-15 0-29.5-3.5T149 459l-10 28q-5 16-8 33.5t-3 34.5v129q0 35 25 60t60 25h598q35 0 60-25t25-60V555q0-17-3-34.5t-8-33.5zm-608 69q27 0 45.5 18.5T341 620q0 26-18.5 45T277 684q-26 0-45-19t-19-45q0-27 19-45.5t45-18.5zm470 0q26 0 45 18.5t19 45.5q0 26-19 45t-45 19q-27 0-45.5-19T683 620q0-27 18.5-45.5T747 556zM512 129q-31 0-72.5 5T345 149q-45 9-80 39t-50 74l-38 114q5 4 11 7t13 4h317q13-47 52.5-78t90.5-31q52 0 91.5 31t52.5 78h13q7 0 13.5-2t12.5-6l3-3-38-114q-15-44-50-74t-80-39q-53-10-94.5-15t-72.5-5zm149 235q-15 0-28 6t-21 17h99q-9-11-22-17t-28-6z"/></svg>