<svg viewBox="0 0 1024 1039" xmlns="http://www.w3.org/2000/svg"><path d="M171 86h597q69 0 118 47.5T938 248l1 9v85q0 18-12.5 30.5T896 385q-16 0-28.5-11T854 347l-1-5v-85q0-34-23-58.5T774 172H171q-34 0-58.5 23T86 251l-1 6v341q0 34 23 58.5t56 26.5l7 1h426q18 0 30.5 12.5T640 726q0 17-11 29t-27 14h-90v85h85q17 0 29 11t14 27v5q0 16-11 28.5T602 939l-5 1H341q-17 0-29.5-12.5T299 897q0-16 10.5-28.5T336 855l5-1h86v-85H171q-69 0-118-47T0 607V257q0-69 47-118t115-52l9-1zm768 384q35 0 60 25t25 61v298q0 36-25 61t-60 25H811q-36 0-61-25t-25-61V556q0-36 25-61t61-25h128zm0 86H811v298h128V556z"/></svg>