<svg viewBox="0 0 1024 1039" xmlns="http://www.w3.org/2000/svg"><path d="M512 1q106 0 199 40 94 40 163.5 109.5T984 314q40 93 40 199t-40 199q-40 94-109.5 163.5T711 985q-93 40-199 40t-199-40q-94-40-163.5-109.5T40 712Q0 619 0 513t40-199q40-94 109.5-163.5T313 41Q406 1 512 1zm0 71q-91 0-172 34-80 35-140 95t-95 140q-34 81-34 172t34 172q35 80 95 140t140 95q81 34 172 34t172-34q80-35 140-95t95-140q34-81 34-172t-34-172q-35-80-95-140t-140-95q-81-34-172-34zm42 188q17-28 48.5-36t59.5 9q2 1 5 3t5 4l5 4 104 104q22 23 22 55.5T781 459q-3 2-5.5 4t-4.5 4l-6 4-81 49 1 9q5 41-10.5 81.5T625 690l-9 10-8 9q-10 9-23 10t-24-7l-3-3-96-96-138 138q-11 11-25.5 11T274 751q-10-9-10.5-22.5T270 705l4-4 138-138-96-96q-9-9-10-22.5t7-23.5l3-4q41-41 84-60.5t87-17.5l9 1 9 1 49-81zm71 33q-2-1-4.5-.5T617 294l-2 2-62 104q-7 11-18.5 15t-23.5 0q-25-8-51.5-3.5T406 434l-8 5-5 5 188 188 5-5q18-26 25-50.5t2-48.5l-1-7-2-7q-4-11-1-21.5t12-17.5l4-3 105-63q2-2 2.5-4.5t-.5-4.5l-2-2-103-103-2-2z"/></svg>