<svg viewBox="0 0 1024 1039" xmlns="http://www.w3.org/2000/svg"><path d="M329 13q12 13 12 30.5T329 74l-55 55h451q71 0 121 50t50 121v426q0 71-50 121t-121 50H299q-71 0-121-50t-50-121V428q0-18 12.5-30.5T171 385q17 0 29.5 12.5T213 428v298q0 36 25 61t61 25h426q36 0 61-25t25-61V300q0-36-25-61t-61-25H274l55 55q12 13 12 30.5T329 330q-13 12-30.5 12T268 330L140 202q-6-6-9-14t-3-16q0-9 3-17t9-14L268 13q13-12 30.5-12T329 13zm345 342q12-13 30-13t30 13q13 12 13 30t-13 30L478 671q-12 13-30 13t-30-13L311 565q-12-13-12-30.5t12-30.5q13-12 30.5-12t30.5 12l76 77 226-226z"/></svg>