<svg viewBox="0 0 1024 1039" xmlns="http://www.w3.org/2000/svg"><path d="M128 513q0-80 30-149 30-70 82.5-122.5T363 159q69-30 149-30t149 30q70 30 122.5 82.5T866 364q30 69 30 149t-30 149q-30 70-82.5 122.5T661 867q-69 30-149 30t-149-30q-70-30-122.5-82.5T158 662q-30-69-30-149zM512 44q-97 0-183 37-85 36-149 100T80 330q-37 86-37 183t37 183q36 85 100 149t149 100q86 37 183 37t183-37q85-36 149-100t100-149q37-86 37-183t-37-183q-36-85-100-149T695 81q-86-37-183-37zm222 371q13-12 13-30t-13-30q-12-13-30-13t-30 13L448 581l-76-77q-13-12-30.5-12T311 504q-12 13-12 30.5t12 30.5l107 106q12 13 30 13t30-13l256-256z"/></svg>