<svg viewBox="0 0 1024 1039" xmlns="http://www.w3.org/2000/svg"><path d="M512 44q-97 0-182 33-85 34-149 93T80 308q-37 79-37 169v14q1 43 11 84 10 40 28 77t43 70q26 33 58 61l7 6-3 4-7 8-20 22q-9 12-15 22t-10 26q-7 35 9.5 62.5T190 973q31 13 85.5 7.5T372 952l13-7q12-8 22.5-15.5T428 914l10-8 17 2q14 1 28.5 2t28.5 1q97 0 182-34t149-92.5Q907 726 944 647t37-170q0-90-37-169T843 170q-64-59-149-93-85-33-182-33zm0 85q80 0 149 27 70 28 122.5 75T866 342q30 63 30 135t-30 136q-30 63-82.5 110.5T661 798q-69 28-149 28-24 0-48-3t-46-8q-3-1-6 .5t-7 4.5l-9 8-11 10-9 8-11 9q-7 5-15.5 11T330 878q-30 17-65 18.5t-42-1.5q-5-3-4-6.5t5-8.5l9-10 7-7 7-9q4-5 8-10.5t8-11.5q19-28 15.5-56.5T267 741q-66-48-102.5-114.5T128 477q0-72 30-135 30-64 82.5-111T363 156q69-27 149-27z"/></svg>