<svg viewBox="0 0 1024 1039" xmlns="http://www.w3.org/2000/svg"><path d="M228 271q9-9 24-19t36-19q41-18 99-29t125-11q67 0 125 11t99 29q21 9 36 19t24 19q9 10 12 17t3 12q0 5-3 12t-12 16q-9 10-24 19.5T736 366q-41 18-99 29t-125 11q-67 0-125-11t-99-29q-21-9-36-18.5T228 328q-9-9-12-16t-3-12q0-5 3-12t12-17zm-61-59q-17 17-28 39.5T128 300v426q0 26 11 48.5t28 39.5q17 17 39 31.5t48 25.5q51 22 117.5 34.5T512 918q74 0 140.5-12.5T770 871q26-11 48-25.5t39-31.5q17-17 28-39.5t11-48.5V300q0-26-11-48.5T857 212q-17-17-39-31.5T770 155q-51-22-117.5-34.5T512 108q-74 0-140.5 12.5T254 155q-26 11-48 25.5T167 212zm644 301q0 5-3 12t-12 16q-9 10-24 19.5T736 580q-41 18-99 29t-125 11q-67 0-125-11t-99-29q-21-10-36-19.5T228 541q-9-9-12-16t-3-12v-89q10 5 20 10.5t21 9.5q51 23 117.5 35.5T512 492q74 0 140.5-12.5T770 444q11-4 21-9.5t20-10.5v89zM213 637q10 6 20 11t21 10q51 22 117.5 34.5T512 705q74 0 140.5-12.5T770 658q11-5 21-10t20-11v89q0 5-3 12t-12 17q-9 9-24 19t-36 19q-41 18-99 29t-125 11q-67 0-125-11t-99-29q-21-9-36-19t-24-19q-9-10-12-17t-3-12v-89z"/></svg>