<svg viewBox="0 0 1024 1039" xmlns="http://www.w3.org/2000/svg"><path d="M512 300l-40 13q4 13 15 21t25 8q14 0 25-8t15-21l-40-13zM320 172v43-43zm502 333q-8 16-2.5 32.5T841 562q16 8 32.5 2.5T898 543l-76-38zM573 867q15-9 19-26.5t-6-32.5q-9-15-26.5-18.5T527 795l46 72zm-59-61q-29-18-87-59t-117-99q-59-59-99-126.5T171 385H85q0 48 14 93t37.5 86q23.5 41 52.5 77 30 36 61 68 63 63 126 107t94 63l44-73zm-2-506q30 10 35 11.5l5 1.5h1v-.5q0-.5 1-1.5 0-2 1.5-5t3.5-6q4-8 10-17t14-18q17-19 46-35t75-15v-86q-66 0-111 24t-72 54q-14 14-23 28t-15 25q-3 5-5 9.5t-3 8.5q-1 1-1.5 2.5t-.5 2.5q-1 1-1 1.5v1.5l5 2q5 2 35 12zm192-85q47 0 98 42.5T853 385h86q0-61-22-109-21-48-55-80.5T786 146q-42-17-82-17v86zM171 385q0-85 51-127.5t98-42.5v-86q-40 0-82 17t-76 49.5Q128 228 107 276q-22 48-22 109h86zm149-170q46-1 75 15t46 35q8 9 14 18t10 17q2 3 3.5 6t1.5 5q1 1 1 1.5v.5h1l5-1.5q5-1.5 35-11.5t35-12l5-2v-.5-.5-.5q0-.5-1-1.5 0-1-.5-2.5T549 278q-1-4-3-8.5t-5-9.5q-6-11-15-25t-23-28q-27-30-72-54t-111-24v86zm190 591h4l-44 73q19 12 42 12t42-12l-44-73zm343-421q0 30-8 60t-23 60l76 38q19-36 30-76t11-82h-86zM527 795q-5 3-9 6t-8 5l44 73q4-3 9-5.5t10-6.5l-46-72zm326-54h-85v85q0 17-12.5 30T725 869q-17 0-29.5-13T683 826v-85h-86q-17 0-29.5-13T555 698q0-18 12.5-30.5T597 655h86v-85q0-18 12.5-30.5T725 527q18 0 30.5 12.5T768 570v85h85q18 0 30.5 12.5T896 698q0 17-12.5 30T853 741z"/></svg>