<svg viewBox="0 0 1024 1039" xmlns="http://www.w3.org/2000/svg"><path d="M427 86q-9 0-17 3.5T396 99l-30 30H192q-18 0-30.5 12.5T149 172q0 17 12.5 29.5T192 214h640q18 0 30.5-12.5T875 172q0-18-12.5-30.5T832 129H658l-30-30q-6-6-14-9.5T597 86H427zM204 291q6-6 14-9.5t17-3.5h554q18 0 30.5 12.5T832 321v420q0 21-2 39-1 18-5 34.5T813 846q-12 25-31 44t-43 31q-16 8-32.5 11.5T672 938q-17 1-38.5 1.5t-47.5.5H438q-26 0-47.5-.5T352 938q-18-2-34.5-5.5T285 921q-24-12-43-31t-31-44q-8-15-12-31.5t-5-34.5q-2-18-2-39V321q0-8 3-16t9-14zm73 73v328q0 28 .5 47t1.5 34q1 14 3 22t5 13q6 12 15.5 21.5T324 845q5 3 13 5t22 3q14 1 33.5 1h239q19.5 0 33.5-1t22-3q8-2 13-5 12-6 21.5-15.5T737 808q3-5 5-13t3-22q1-15 1.5-34t.5-47V364H277z"/></svg>