<svg viewBox="0 0 1024 1039" xmlns="http://www.w3.org/2000/svg"><path d="M512 82q-69 0-129 26-61 26-106 71t-71 105q-26 61-26 129v393q0 17 .5 26.5T183 847q5 10 15 15t21 4q5-1 13-6t22-15q8-6 12-8.5t8-3.5q7-3 14.5-1.5T303 837q3 2 6.5 6t8.5 12l47 60q9 12 15 19t12 9q5 2 10.5 2.5t11.5-.5q6-2 12.5-8t17.5-17l30-30q10-10 16-15.5t12-6.5q5-2 10-2t10 2q6 1 12 6.5t16 15.5l30 30q11 11 17.5 17t12.5 8q6 1 11.5.5T632 943q6-2 12-9t15-19l47-60q5-8 8.5-12t6.5-6q7-4 14.5-5.5T750 833q4 1 8 3.5t12 8.5q14 10 22 15t13 6q11 1 21-4t15-15q2-5 2.5-14.5t.5-26.5V413q0-68-26-129-26-60-71-105t-106-71q-60-26-129-26zm199 331q0 28-19.5 47.5T645 480q-28 0-47.5-19.5T578 413q0-27 19.5-46.5T645 347q27 0 46.5 19.5T711 413zm-265 0q0 28-19.5 47.5T379 480q-27 0-46.5-19.5T313 413q0-27 19.5-46.5T379 347q28 0 47.5 19.5T446 413z"/></svg>