<svg viewBox="0 0 1024 1039" xmlns="http://www.w3.org/2000/svg"><path d="M469 172v138q0 26 .5 47t1.5 39q2 18 5.5 34.5T488 462q12 25 31 44t44 31q15 8 31.5 11.5T629 554q18 1 39 1.5t47 .5h138v130.5q0 26.5-2 46.5-1 19-4 31t-8 20q-9 19-23 33t-33 23q-8 5-20 8t-31 4q-20 2-46.5 2h-347q-26.5 0-46.5-2-19-1-31-4t-20-8q-19-9-33-23t-23-33q-5-8-8-20t-4-31q-2-20-2-46.5V402v-62.5q0-26.5 2-46.5 1-19 4-31t8-20q9-19 23-33t33-23q8-5 20-8t31-4q20-2 46.5-2H469zm363 298H670q-19 0-34-1-14-1-22-3t-13-5q-12-6-21.5-15.5T564 424q-3-5-5-13t-3-22q-1-15-1-34V193q8 5 18.5 15t30.5 31l182 182q21 20 31 30.5t15 18.5zM534 92q-19-4-39.5-5T446 86h-47q-34 0-62.5.5T285 89q-23 2-43.5 6.5T202 110q-30 15-54 39t-39 54q-10 19-14.5 39.5T88 286q-2 23-2.5 51.5T85 400v226q0 34 .5 62.5T88 740q2 23 6.5 43.5T109 823q15 30 39 54t54 39q19 10 39.5 14.5T285 937q23 2 51.5 2.5t62.5.5h226q34 0 62.5-.5T739 937q23-2 43.5-6.5T822 916q30-15 54-39t39-54q10-19 14.5-39.5T936 740q2-23 2.5-51.5t.5-62.5v-47q0-28-1-48.5t-5-39.5q-4-16-10.5-31.5T907 430q-10-17-24-32t-33-34L661 175q-19-19-34-33t-32-24q-14-9-29.5-15.5T534 92z"/></svg>