<svg viewBox="0 0 1024 1039" xmlns="http://www.w3.org/2000/svg"><path d="M448 278q0-44 31-75t76-31q44 0 75 31t31 75q0 45-31 76t-75 31q-45 0-76-31t-31-76zM555 86q-80 0-136 56.5T363 278q0 80 56 136t136 56q79 0 135.5-56T747 278q0-79-56.5-135.5T555 86zM341 647q35-19 87.5-34T555 598q128 0 195.5 39.5T842 703q5 6 8 16t3 24q0 28-20 48.5T784 812H512q-18 0-30.5 12.5T469 854q0 18 12.5 30.5T512 897h272q64 0 109.5-45T939 743q0-23-7-49t-27-48q-17-19-46-42-29-24-72-44t-100-33q-58-14-132-14-85 0-148 17t-108 42q-15 9-20 25.5t4 32.5q8 15 25 20t33-3zm-85 37q18 0 30.5 12.5T299 726v86h85q18 0 30.5 12.5T427 854q0 18-12.5 30.5T384 897h-85v85q0 18-12.5 30.5T256 1025q-18 0-30.5-12.5T213 982v-85h-85q-18 0-30.5-12.5T85 854q0-17 12.5-29.5T128 812h85v-86q0-17 12.5-29.5T256 684z"/></svg>