<svg viewBox="0 0 1024 1039" xmlns="http://www.w3.org/2000/svg"><path d="M500 128l23 13q60 31 128.5 34.5T784 154l54-22q21-8 39.5 4.5T896 172v428q0 13-7.5 24T869 640l-54 21q-40 16-83 22-43 7-85.5 5T562 674q-41-11-80-31l-23-13q-58-29-122.5-30T213 626v314q0 17-12.5 29.5T171 982q-17 0-29-10.5T128 945V172q0-3 .5-5.5t.5-5.5l2-5q3-8 9-14t14-9l14-8q40-20 82-29 42-10 85-9.5T420 98q42 10 80 30zm-287 70v336l13-4q68-20 139-14t135 39l23 13q60 31 128.5 34.5T784 581l27-10V235l-13 4q-39 14-80 19-40 5-80.5 2T558 246q-40-11-76-31l-23-12q-57-30-122-31t-124 26z"/></svg>