<svg viewBox="0 0 1024 1039" xmlns="http://www.w3.org/2000/svg"><path d="M384 172h21q2 1 3.5 1.5t2.5 1.5q1 0 3.5 2.5L426 189l71 70q6 7 13 13.5t15 11.5q8 4 15.5 7.5T556 297q10 2 19.5 2.5t18.5.5h186.5q19.5 0 33.5 1t22 3q8 2 13 5 12 6 22 15.5t16 21.5q2 5 4 13t3 22q2 15 2 34v281.5q0 19.5-2 33.5-1 14-3 22t-4 13q-6 12-16 21.5T849 802q-5 3-13 5t-22 3q-14 1-33.5 1.5t-46.5.5H290q-27 0-46.5-.5T210 810q-14-1-22-3t-13-5q-12-6-22-15.5T137 765q-2-5-4-13t-3-22q-2-14-2-33.5V334v-47q0-19 2-34 1-14 3-22t4-13q6-12 16-21.5t22-15.5q5-3 13-5t22-3q14-1 33.5-1H384zm41-83q-9-2-18.5-2.5T387 86h-99q-25 0-46.5.5T203 88q-18 2-35 5.5T136 105q-24 12-43 31t-32 44q-8 15-11.5 31.5T45 246q-2 18-2 39v413.5q0 21.5 2 38.5 1 18 4.5 34.5T61 804q13 24 32 43t43 31q15 8 32 12t35 5q17 2 38.5 2h541q21.5 0 38.5-2 18-1 35-5t32-12q24-12 43-31t32-43q8-16 11.5-32.5T979 737q2-17 2-38.5V460v-47q0-21-2-39-1-18-4.5-34.5T963 308q-13-25-32-44t-43-31q-15-8-32-11.5t-35-5.5q-17-1-38.5-1.5T736 214H576q-1-1-3-1.5t-3-1.5q-1 0-3.5-2.5L555 197l-70-70q-7-7-14-13.5T456 102q-7-4-15-7.5T425 89zM235 428q-18 0-30.5 12.5T192 470q0 18 12.5 30.5T235 513h554q18 0 30.5-12.5T832 470q0-17-12.5-29.5T789 428H235z"/></svg>