<svg viewBox="0 0 1024 1039" xmlns="http://www.w3.org/2000/svg"><path d="M479 9h-1q-10 6-18.5 15.5T445 45l1-2q-4 9-8 17.5T431 80L246 526q-2 4-3 9t-1 10q0 20 14.5 34.5T291 594q15 0 27.5-8.5T336 563l49-116h251l49 117q6 13 18 21.5t27 8.5q21 0 35-14.5t14-34.5q0-5-.5-10t-2.5-9L592 78v-2q-4-9-7.5-17T578 44v-1q-6-10-14-19T545 9h1q-8-4-16.5-6T512 1q-9 0-17.5 2T479 9zm33 130l87 212H425l87-212zm-219-32q20 0 34-14t14-34q0-21-14-35t-34-14h-49.5Q221 10 202 12q-20 2-38 7t-34 13l1-1q-28 14-49.5 35.5T46 115v1q-9 17-14.5 36T24 192v793q0 15 8.5 27t21.5 18h1q4 2 8.5 3t10.5 1q10 0 18.5-4t15.5-10l149-150q6-7 12.5-13t13.5-11q3-2 6.5-3.5t7.5-2.5q4 0 8.5-.5t9.5-.5q5 0 9.5.5t9.5.5h-1 483q21-1 40.5-6t37.5-14l-1 1q28-15 49.5-37.5T978 734v-2q8-16 13-35.5t7-40.5v-44-321-54-44q-2-21-7-40.5T978 115v2q-14-28-35.5-49.5T894 32l-1-1q-15-8-33-12.5T823 12h-1q-19-2-41.5-2H731q-20 0-34 14t-14 35q0 20 14 34t34 14h82q10 1 19 3t18 6h-1q14 7 24.5 18t17.5 24q4 9 6.5 19.5T900 198v448q0 11-2.5 21t-6.5 20v-1q-7 14-17.5 24.5T849 728v1q-9 4-19 6t-21 2H317q-12 0-23.5 1t-22.5 3h2q-12 3-23 7.5T229 759h1q-12 8-22 16.5T189 794l-3 3-64 70V294v-54-39q0-10 2.5-20.5T131 161q7-13 17.5-24t24.5-18q8-4 17-6t19-3q16-2 36-2.5t48-.5z"/></svg>