<svg viewBox="0 0 1024 1039" xmlns="http://www.w3.org/2000/svg"><path d="M512 172q13-16 31.5-24t38.5-7q16 1 29 8t22 14q9 8 20 18t24 21l237 220q7 6 13 11.5t11 10.5q5 6 10 13.5t9 17.5q4 13 4 27.5t-4 27.5q-4 10-9 17.5T938 560q-5 6-11 11.5T914 583L677 802q-13 12-24 22t-20 17q-9 7-22 14.5t-29 7.5q-20 1-38.5-7T512 833q-11-13-14.5-27t-4.5-26q-1-11-1-26v-58q-97 6-162 36t-105 64l-1 1q-15 12-27 22t-21 17q-4 4-9 7l-10 6q-3 2-11.5 5.5T126 857q-7 0-15-2t-15-6q-8-5-13.5-10.5T73 827q-5-9-6.5-17T65 797q0-5 .5-10.5T67 776q1-10 3-23t5-29l1-1q11-61 37.5-133T193 456q24-29 55-54 30-24 67-43t81-31q44-12 96-16v-29-32q0-15 1-27 1-11 4.5-25.5T512 172zm67 58l-.5.5q-.5.5-.5 1.5 0 8-.5 21t-.5 32v68q0 18-12.5 30.5T535 396q-102 0-168.5 33T258 511q-43 51-65.5 111.5T159 738v2q3-2 5.5-4.5t5.5-4.5q28-24 63-45 36-22 81.5-39t99.5-28q55-10 121-10 8 0 16 3t14 9q6 6 9 14t3 17v68q0 19 .5 31.5t.5 21.5l.5 1 .5 1 .5-.5q.5-.5 1.5-.5 6-6 15.5-14.5T620 738l235-217q8-7 12.5-11t7.5-7v-.5-.5l-7.5-7.5Q863 490 855 484L620 266q-14-13-23.5-21.5T581 231q-1 0-1.5-.5l-.5-.5zM115 775zm36 19v0z"/></svg>