<svg viewBox="0 0 1024 1039" xmlns="http://www.w3.org/2000/svg"><path d="M512 172q13-16 31.5-24t38.5-7q16 1 29 8t22 14q9 8 20 18t24 21l238 220q6 6 12 11.5t11 10.5q5 6 10 13.5t9 17.5q4 13 4 27.5t-4 27.5q-4 10-9 17.5T938 560q-5 6-11 11.5T915 583L677 802q-13 12-24 22t-20 17q-9 7-22 14.5t-29 7.5q-20 1-38.5-7T512 833q-10-13-13.5-27t-4.5-26q-1-11-1.5-26t-.5-32v-26q-96 6-161.5 36T225 796l-1 1q-15 12-27 22t-21 17q-4 4-9 7l-10 6q-3 2-11.5 5.5T126 857q-7 0-14.5-2T96 849q-8-5-13.5-10.5T74 827q-6-9-7-17t-2-13q0-5 .5-10.5T67 776q1-10 3.5-23t4.5-29l1-1q11-61 37.5-133T193 456q25-29 55-54 31-24 68-43t81-31q44-12 95-16v-29q0-17 .5-32t1.5-27q1-11 4.5-25.5T512 172zm67 58v2q-1 8-1 21v100q0 18-12.5 30.5T535 396q-102 0-168.5 33T258 511q-42 51-65 111.5T160 738l-.5.5q-.5.5-.5 1.5 3-2 5.5-4.5t5.5-4.5q28-24 64-45 36-22 81-39t100-28q54-10 120-10 8 0 16 3t14 9q6 6 9.5 14t3.5 17v99.5q0 12.5 1 21.5v2l.5-.5q.5-.5 1.5-.5 7-6 16-14.5t24-21.5l235-217q7-7 11.5-11t7.5-7v-.5-.5l-7.5-7.5Q863 490 856 484L621 266q-15-13-24-21.5T581 231q-1 0-1.5-.5l-.5-.5zM115 775zm36 19v0zm384-441v-68q0-37 1-57t9-29q6-8 15.5-12t19.5-3q11 1 26.5 13.5T649 235l236 217q14 13 21.5 21t9.5 16q3 6 3 13t-3 14q-2 8-9.5 15.5T885 552L649 770q-27 25-42.5 37.5T580 821q-10 0-19.5-4T545 805q-8-8-9-28t-1-57v-68q-62 0-113 9-51 10-92.5 25.5T255 722q-33 20-57 41-31 26-47.5 39T128 815q-6-1-10.5-3.5T110 804q-3-5-.5-22.5T118 730q10-58 35-124t72.5-122.5Q273 427 349 390q75-37 186-37z"/></svg>