<svg viewBox="0 0 1024 1039" xmlns="http://www.w3.org/2000/svg"><path d="M512 44q97 0 183 37 85 36 149 100t100 149q37 86 37 183t-37 183q-36 85-100 149T695 945q-86 37-183 37t-183-37q-85-36-149-100T80 696q-37-86-37-183t37-183q36-85 100-149T329 81q86-37 183-37zm0 85q-80 0-149 30-70 30-122.5 82.5T158 364q-30 69-30 149t30 149q30 70 82.5 122.5T363 867q69 30 149 30t149-30q70-30 122.5-82.5T866 662q30-69 30-149t-30-149q-30-70-82.5-122.5T661 159q-69-30-149-30zm-1 525q22 0 37 14.5t15 35.5q0 21-15.5 35.5T511 754q-21 0-36.5-15T459 704q0-21 15.5-35.5T511 654zm15-359q62 0 103.5 32t41.5 86q0 32-14.5 55T610 514l-21 14q-20 14-28.5 26t-8.5 27v5q0 16-11 26t-29 10q-19 0-29-10t-10-29v-6q0-30 13.5-51t43.5-42l15-10q23-17 32-29t9-28q0-24-17-38.5T523 364q-20 0-35.5 9.5T461 402l-12 14-3 4q-7 7-14 10t-18 3q-14 0-24-9.5T380 398q0-5 1-11l2-12q11-35 49.5-57.5T526 295z"/></svg>