<svg viewBox="0 0 1024 1039" xmlns="http://www.w3.org/2000/svg"><path d="M512 44q80 0 149 30 70 30 122.5 82T866 278q30 70 30 150 0 50-14 95-13 46-40 86.5T775 685q-40 36-92 66v103q0 53-37.5 90.5T555 982h-86q-53 0-90.5-37.5T341 854V751l-13-7q-49-30-87-65-37-35-62-74.5T141 521q-13-45-13-93 0-80 30-150t82.5-122Q293 104 363 74q69-30 149-30zm-85 810q0 18 12.5 30.5T469 897h86q17 0 29.5-12.5T597 854H427zm85-725q-62 0-116 23-55 24-95.5 64.5T237 311q-24 55-24 117 0 40 12 76t35.5 68.5Q284 605 320 634t84 55q10 5 16.5 15t6.5 22v43h170v-43q0-12 6.5-22t16.5-15q48-26 84-55t59.5-61.5Q787 540 799 504t12-76q0-62-24-117-23-54-63.5-94.5T628 152q-54-23-116-23zm0 335l104-72q14-10 31.5-6.5T675 404q9 13 7 29t-14 27l-4 3-109 75v103q0 16-11 28.5T517 683l-5 1q-16 0-28.5-11T470 646l-1-5V538l-109-75q-14-9-17.5-25t3.5-30l3-4q9-14 24.5-18t30.5 4l4 2 104 72z"/></svg>