<svg viewBox="0 0 1024 1039" xmlns="http://www.w3.org/2000/svg"><path d="M344 78h24q10 0 18 1 10 1 14.5 2t6.5 2q7 4 13 10t10 13q1 2 2 6.5t2 14.5q1 11 1 26v91q0 31 .5 56.5T437 347q2 21 6.5 41t14.5 39q14 29 37 52t52 37q19 10 39 14.5t41 5.5q21 2 46.5 2.5t56.5.5h91q15 0 25 1 11 1 15.5 2t6.5 2q7 4 13 9.5t9 13.5q1 1 2.5 6t2.5 15q1 11 1 25.5V702q0 65-2 101.5T879 864q-11 22-28 39t-39 28q-25 13-61 15t-101 2H374q-65 0-101-2t-61-15q-22-11-39-28t-28-39q-13-24-15-60.5T128 702V324q0-65 2-101.5t15-60.5q11-22 28-39t39-28q22-11 52-14t80-3zm541 364q-3-6-5.5-11.5T873 420q-7-12-18-24t-31-32L610 150q-20-20-32-31t-24-19q-5-3-11-6t-11-5q1 7 2 14.5t2 15.5q1 14 1.5 31.5t.5 37.5v110q0 23 2 40 1 17 3.5 26.5T549 380q7 15 18.5 26.5T594 425q6 3 15.5 5.5T635 434q18 2 41 2h109q21 0 38 .5t32 1.5q7 0 14.5 1t15.5 3z"/></svg>