<svg viewBox="0 0 1024 1039" xmlns="http://www.w3.org/2000/svg"><path d="M277 349q-9 2-17.5 5t-16.5 7q-25 12-44 31t-31 44q-8 15-11.5 31.5T151 502q-1 18-1.5 39t-.5 47v106q0 26 .5 47t1.5 39q2 18 5.5 34.5T168 846q12 25 31 44t44 31q15 8 31.5 11.5T309 938q18 1 39 1.5t47 .5h234q26 0 47-.5t39-1.5q18-2 34.5-5.5T781 921q25-12 44-31t31-44q8-15 11.5-31.5T873 780q1-18 1.5-39t.5-47V588q0-26-.5-47t-1.5-39q-2-18-5.5-34.5T856 436q-12-25-31-44t-44-31q-8-4-16.5-7t-17.5-5v-71q0-48-19-91-18-43-50-74.5T603 62q-42-18-91-18t-91 18q-43 19-75 50.5T296 187q-19 43-19 91v71zm86-71q0-62 43.5-105.5T512 129q62 0 105.5 43.5T661 278v64H363v-64zm-82 159q5-3 13-5t22-3q15-1 34-1h324q19 0 34 1 14 1 22 3t13 5q12 6 21.5 15.5T780 474q3 5 5 13t3 22q1 15 1 34v196q0 19-1 34-1 14-3 22t-5 13q-6 12-15.5 21.5T743 845q-5 3-13 5t-22 3q-15 1-34 1H350q-19 0-34-1-14-1-22-3t-13-5q-12-6-21.5-15.5T244 808q-3-5-5-13t-3-22q-1-15-1-34V590v-47q0-19 1-34 1-14 3-22t5-13q6-12 15.5-21.5T281 437z"/></svg>