<svg viewBox="0 0 1024 1039" xmlns="http://www.w3.org/2000/svg"><path d="M387 44q-34 0-58.5 1T283 52q-19 5-37 14t-34 21q-18 14-33.5 33T143 165l-10 15q-10 13-17.5 23.5T102 225q-4 10-7.5 20.5T89 267q-3 12-3.5 25t-.5 30v304q0 34 .5 62.5T88 739q2 24 6.5 44.5T109 823q15 30 39 54t54 39q19 10 39.5 14.5T285 937q23 2 51.5 2.5t62.5.5h226q34 0 62.5-.5T739 937q23-2 43.5-6.5T822 916q30-15 54-39t39-54q10-19 14.5-39.5T936 739q2-22 2.5-50.5t.5-62.5V322q0-17-.5-30t-3.5-25q-2-11-5.5-21.5T922 225q-6-11-13.5-21.5T891 180l-2-3-8-12q-20-26-35.5-45T812 87q-16-12-34-21t-37-14q-21-6-45.5-7T637 44H387zm434 184q3 5 6 8.5t5 6.5q-2-1-4.5-2.5T822 238q-19-10-39.5-14.5T739 217q-23-2-51.5-2.5T625 214H399q-34 0-62.5.5T285 217q-23 2-43.5 6.5T202 238q-3 1-5.5 2.5T192 243q2-3 5-6.5t6-8.5l5-7q24-31 35-44.5t21-21.5q9-7 20-12.5t22-8.5q12-3 29.5-4t57.5-1h238q40 0 57.5 1t29.5 4q11 3 22 8.5t20 12.5q10 8 21 21.5t35 44.5l5 7zm32 328v130.5q0 26.5-2 46.5-1 19-4 31t-8 20q-9 19-23 33t-33 23q-8 5-20 8t-31 4q-20 2-46.5 2h-347q-26.5 0-46.5-2-19-1-31-4t-20-8q-19-9-33-23t-23-33q-5-8-8-20t-4-31q-2-20-2-46.5V530v-62.5q0-26.5 2-46.5 1-19 4-31t8-20q9-19 23-33t33-23q8-5 20-8t31-4q20-2 46.5-2h347q26.5 0 46.5 2 19 1 31 4t20 8q19 9 33 23t23 33q5 8 8 20t4 31q2 20 2 45.5V556zm-439-73q-12-13-30-13t-30 13q-13 12-13 30t13 30l128 128q12 13 30 13t30-13l128-128q13-12 13-30t-13-30q-12-13-30-13t-30 13l-98 98-98-98z"/></svg>