<svg viewBox="0 0 1024 1039" xmlns="http://www.w3.org/2000/svg"><path d="M100 222q-5 15-8 31t-4 33q-2 23-2.5 51.5T85 400v226q0 34 .5 62.5T88 739q2 24 6.5 44.5T109 823q15 30 39 54t54 39q19 10 39.5 14.5T285 937q23 2 51.5 2.5t62.5.5h70q18 0 30.5-12.5T512 897q0-18-12.5-30.5T469 854H338.5q-26.5 0-46.5-2-19-1-31-4t-20-8q-6-2-11-5.5t-10-7.5l92-149q11-18 18.5-30.5T344 627q5-7 7.5-9l2.5-2q4-2 8.5-2t8.5 2l2.5 2q2.5 2 7.5 9 6 8 13.5 20.5T414 678l4 7q9 15 26 19t32-5q16-10 20-27t-5-32l-6-9q-10-16-19-30t-17-25q-8-11-18.5-21.5T405 538q-20-9-42-9t-43 9q-14 6-25 16.5T276 576q-8 11-17 25t-19 30l-1 2-65 107q-1-2-1-4v-3q-2-20-2-46.5V402v-62q0-26 2-45l-73-73zm143-38q9-4 20.5-6.5T292 174q20-2 46.5-2H469q18 0 30.5-12.5T512 129q0-18-12.5-30.5T469 86h-70q-34 0-62.5.5T285 89q-23 2-43.5 6.5T202 110q-6 2-11 5t-10 7l62 62zm418-55q0 18-12.5 30.5T619 172q-18 0-30.5-12.5T576 129q0-18 12.5-30.5T619 86q17 0 29.5 12.5T661 129zm-42 235q22 0 37.5-16t15.5-38q0-22-15.5-37.5T619 257q-22 0-38 15.5T565 310q0 22 16 38t38 16zm170 202q22 0 38-15.5t16-37.5q0-22-16-37.5T789 460q-22 0-37.5 15.5T736 513q0 22 15.5 37.5T789 566zm192-53q0 18-12.5 30.5T939 556q-18 0-30.5-12.5T896 513q0-18 12.5-30.5T939 470q17 0 29.5 12.5T981 513zM619 940q17 0 29.5-12.5T661 897q0-18-12.5-30.5T619 854q-18 0-30.5 12.5T576 897q0 18 12.5 30.5T619 940zm170-587q18 0 30.5-12.5T832 310q0-17-12.5-29.5T789 268q-17 0-29.5 12.5T747 310q0 18 12.5 30.5T789 353zm32-224q0 13-9 22.5t-23 9.5q-13 0-22.5-9.5T757 129q0-13 9.5-22.5T789 97q14 0 23 9.5t9 22.5zm118 213q13 0 22.5-9t9.5-23q0-13-9.5-22.5T939 278q-14 0-23 9.5t-9 22.5q0 14 9 23t23 9zm32 384q0 14-9.5 23t-22.5 9q-14 0-23-9t-9-23q0-13 9-22.5t23-9.5q13 0 22.5 9.5T971 726zm-32-576q9 0 15-6t6-15q0-9-6-15t-15-6q-9 0-15.5 6t-6.5 15q0 9 6.5 15t15.5 6zM98 99q12-13 30-13t30 13l768 768q13 12 13 30t-13 30q-12 13-30 13t-30-13L98 159q-13-12-13-30t13-30z"/></svg>