<svg viewBox="0 0 1024 1039" xmlns="http://www.w3.org/2000/svg"><path d="M333 86h-2q-26 0-47 .5T245 88q-18 2-34.5 5.5T179 105q-25 12-44 31t-31 44q-8 15-11.5 31.5T87 246q-1 18-1.5 39t-.5 47v608q0 13 7.5 23.5T112 979q12 5 24.5 2.5T158 970l131-131 16-16q4-4 7-5 3-2 6-3l6-2q3-1 8.5-1H555q17 0 29.5-12.5T597 769q0-18-12.5-30.5T555 726H352q-13 0-25 .5t-23 3.5q-10 2-19 6t-18 9q-10 6-18.5 14T231 776l-2 3-58 58V334v-47q0-19 1-34 1-14 3-22t5-13q6-12 15.5-21.5T217 181q5-3 13-5t22-3q15-1 34-1h452q19 0 34 1 14 1 22 3t13 5q12 6 21.5 15.5T844 218q3 5 5 13t3 22q1 15 1 34v141q0 17 12.5 29.5T896 470q18 0 30.5-12.5T939 428v-96q0-26-.5-47t-1.5-39q-2-18-5.5-34.5T920 180q-12-25-31-44t-44-31q-15-8-31.5-11.5T779 88q-18-1-39-1.5t-47-.5H333zm392 598q0-36 25-61t61-25q35 0 60 25t25 61q0 35-25 60t-60 25q-36 0-61-25t-25-60zm86-171q-71 0-121 50t-50 121q0 70 50 120t121 50q70 0 120-50t50-120q0-71-50-121t-120-50z"/></svg>