<svg viewBox="0 0 1024 1039" xmlns="http://www.w3.org/2000/svg"><path d="M320 257q0-80 56-136t136-56q80 0 136 56t56 136v213q0 37-12.5 69.5T656 597l61 60q34-37 53-85t19-102q0-17 12.5-29.5T832 428q18 0 30.5 12.5T875 470q0 72-26 135.5T777 718l149 149q13 12 13 30t-13 30q-12 13-30 13t-30-13L98 159q-13-12-13-30t13-30q12-13 30-13t30 13l162 162v-4zm85 89l191 190q11-13 17-30t6-36V257q0-44-31.5-75.5T512 150q-44 0-75.5 31.5T405 257v89zm-85 96l219 218q-7 1-13.5 1.5t-13.5.5q-80 0-136-56t-56-136v-28zm354 353l-65-65q-23 9-47 13.5t-50 4.5q-57 0-108-22-50-22-88-59.5T256 578q-21-50-21-108 0-17-12.5-29.5T192 428q-18 0-30.5 12.5T149 470q0 70 25 132t68 110q43 48 101 79 59 32 126 40v87q0 18 12.5 30.5T512 961q18 0 30.5-12.5T555 918v-87q31-4 61-13t58-23z"/></svg>