<svg viewBox="0 0 1024 1039" xmlns="http://www.w3.org/2000/svg"><path d="M533 726q18 0 30.5 12.5T576 769q0 16-11 28.5T538 811l-5 1H128q-18 0-30.5-12.5T85 769q0-16 11-28.5t27-13.5l5-1h405zm315-597q33 0 55.5 21t22.5 53q0 15-5 28.5T906 258q-10 12-24.5 24.5T848 307l-9 7-7 4 5 69 2 1q51 25 83 65t37 87l1 9v8q0 35-22.5 58.5T880 641H747v128q0 18-12.5 30.5T704 812q-16 0-28.5-11T662 774l-1-5V641H534q-35 0-59-21.5T448 564v-7q0-49 30.5-92.5T560 393l9-5 3-1 4-69-6-4q-17-11-31-22t-25-21l-6-7-5-6q-10-12-15.5-26t-5.5-29q0-31 20.5-51.5T554 129h294zM341 513q18 0 30.5 12.5T384 556q0 16-11 28t-27 14H128q-18 0-30.5-12.5T85 556q0-17 11-29t27-14h218zm489-299H579l1 2q8 7 19 15t25 16l9 5 8 5q10 6 16 15t6 20v6l-8 121q-1 13-8.5 23T627 456q-42 15-66.5 41.5T534 551l-1 5h342l-1-5q-2-24-21.5-47.5T799 464l-9-4-9-4q-10-4-17.5-12t-9.5-19l-1-6-8-121q-1-13 5-24t17-17q16-9 30.5-18.5T823 220l5-4 2-2zm-403 86q17 0 29.5 12.5T469 342q0 17-10.5 29T432 385H128q-18 0-30.5-12.5T85 342q0-16 11-28t27-14h304z"/></svg>