<svg viewBox="0 0 1024 1039" xmlns="http://www.w3.org/2000/svg"><path d="M85 342q0-35 25-60t60-25h128q36 0 61 25t25 60v342q0 35-25 60t-61 25H170q-35 0-60-25t-25-60V342zm213 0H170v342h128V342zm640-42q0-18-12-30.5T896 257H725q-35 0-60 25t-25 60v128q0 36 25 61t60 25h128v128H683q-18 0-30.5 12.5T640 726q0 18 12.5 30.5T683 769h170q36 0 60.5-25t24.5-60V556q0-36-24.5-61T853 470H725V342h171q18 0 30-12.5t12-29.5zM512 769q27 0 45.5-18.5T576 705q0-27-18.5-45.5T512 641q-27 0-45.5 18.5T448 705q0 27 18.5 45.5T512 769z"/></svg>