<svg viewBox="0 0 1024 1039" xmlns="http://www.w3.org/2000/svg"><path d="M128 300q0-18 12.5-30.5T171 257h64q35 0 60 25t25 60v384q0 18-12.5 30.5T277 769q-17 0-29.5-12.5T235 726V342h-64q-18 0-30.5-12.5T128 300zm746 0q0-18-12-30.5T832 257H661q-35 0-60 25t-25 60v128q0 36 25 61t60 25h128v128H619q-18 0-30.5 12.5T576 726q0 18 12.5 30.5T619 769h170q36 0 60.5-25t24.5-60V556q0-36-24.5-61T789 470H661V342h171q18 0 30-12.5t12-29.5zM448 769q27 0 45.5-18.5T512 705q0-27-18.5-45.5T448 641q-27 0-45.5 18.5T384 705q0 27 18.5 45.5T448 769z"/></svg>