<svg viewBox="0 0 1024 1039" xmlns="http://www.w3.org/2000/svg"><path d="M610 184q12-12 30-12t30 12l86 85q12 13 12 30.5T756 330q-13 12-30.5 12T695 330l-85-85q-13-13-13-30.5t13-30.5zm146 85q12 13 12 30.5T756 330l-86 85q-12 13-30 13t-30-13q-13-12-13-30t13-30l85-86q13-12 30.5-12t30.5 12zm-500 73q-18 0-30.5 12.5T213 385v128q0 18-12.5 30.5T171 556q-18 0-30.5-12.5T128 513V385q0-53 37.5-90.5T256 257h384q18 0 30.5 12.5T683 300q0 17-12.5 29.5T640 342H256zm158 500q-12 12-30 12t-30-12l-86-85q-12-13-12-30.5t12-30.5q13-12 30.5-12t30.5 12l85 85q13 13 13 30.5T414 842zm-146-85q-12-13-12-30.5t12-30.5l86-85q12-13 30-13t30 13q13 12 13 30t-13 30l-85 86q-13 12-30.5 12T268 757zm500-73q18 0 30.5-12.5T811 641V513q0-18 12.5-30.5T853 470q18 0 30.5 12.5T896 513v128q0 53-37.5 90.5T768 769H384q-18 0-30.5-12.5T341 726q0-17 12.5-29.5T384 684h384z"/></svg>