<svg viewBox="0 0 1024 1039" xmlns="http://www.w3.org/2000/svg"><path d="M19 222Q5 250 2.5 290T0 402v222q0 72 2.5 112T19 804q12 24 31 43t43 31q28 14 68 16.5t112 2.5h478q72 0 112-2.5t68-16.5q24-12 43-31t31-43q14-28 16.5-68t2.5-112V402q0-72-2.5-112t-16.5-68q-12-24-31-43t-43-31q-28-14-68-16.5T751 129H273q-72 0-112 2.5T93 148q-24 12-43 31t-31 43zm173 92q12-9 26.5-7t23.5 14l99 133 100-133q9-12 23.5-14t26.5 7q11 9 13 23.5t-6 26.5L386 513l112 149q8 12 6 26.5T491 712q-12 9-26.5 7T441 705L341 572l-99 133q-9 12-23.5 14t-26.5-7q-12-9-14-23.5t7-26.5l112-149-112-149q-9-12-7-26.5t14-23.5zm370 92q0-41 29-70t70-29h57q53 0 90.5 37.5T846 435q0 36-19 67t-52 47l-115 57q-12 6-19 17.5t-8 24.5h178q14 0 24.5 10.5T846 684q0 14-10.5 24.5T811 719H597q-14 0-24.5-10.5T562 684v-33q0-34 18-63.5t49-44.5l115-57q14-8 22.5-21.5T775 435q0-24-16.5-40.5T718 378h-57q-12 0-20 8t-8 20v22q0 14-10.5 24.5T597 463q-14 0-24.5-10.5T562 428v-22z"/></svg>