<svg viewBox="0 0 1024 1039" xmlns="http://www.w3.org/2000/svg"><path d="M725 129q69 0 118 47t53 115v158q0 18-12.5 30.5T853 492q-16 0-28-11t-14-27V300q0-34-23-58.5T732 215l-7-1H299q-34 0-58.5 23T214 293l-1 7v537l94-94q7-7 15.5-11t17.5-5l7-1h186q18 0 30.5 12.5T576 769q0 16-11 28.5T538 811l-5 1H359L208 963q-13 12-30.5 13T146 966l-4-3q-6-6-9.5-13t-4.5-15V300q0-69 47-118t115-53h435zm244 396q11 12 12 28t-9 29l-3 4-213 213q-12 12-28 12.5t-29-8.5l-4-4-107-106q-12-13-12-30.5t12-30.5q12-11 28-12t29 9l4 3 76 77 183-184q13-12 30.5-12t30.5 12z"/></svg>