<svg viewBox="0 0 1024 1039" xmlns="http://www.w3.org/2000/svg"><path d="M512 44q97 0 183 37 85 36 149 100t100 149q37 86 37 183t-37 183q-36 85-100 149T695 945q-86 37-183 37t-183-37q-85-36-149-100T80 696q-37-86-37-183t37-183q36-85 100-149T329 81q86-37 183-37zm0 85q-80 0-149 30-70 30-122.5 82.5T158 364q-30 69-30 149t30 149q30 70 82.5 122.5T363 867q69 30 149 30t149-30q70-30 122.5-82.5T866 662q30-69 30-149t-30-149q-30-70-82.5-122.5T661 159q-69-30-149-30zm0 85q16 0 28.5 11t13.5 27l1 5v237l173 158q14 12 14.5 29.5T731 712q-11 12-27 14t-29-7l-4-4-174-158q-12-11-19-25t-8-30l-1-8V257q0-18 12.5-30.5T512 214z"/></svg>