<svg viewBox="0 0 1024 1039" xmlns="http://www.w3.org/2000/svg"><path d="M853 513q34 0 58.5 23t26.5 56l1 6v256q0 34-23 58.5T860 939l-7 1H597q-33 0-57.5-23T512 861V598q0-33 23-57.5t56-27.5h262zm-635 73l4 3 107 107q12 13 12 30.5T329 757q-12 11-28 12t-28-9l-5-3-33-34v89q0 16 10.5 28t26.5 14h112q18 0 30.5 12.5T427 897q0 16-11 28.5T389 939l-5 1H277q-51 0-88-35t-39-86l-1-7v-89l-33 34q-12 11-28 12t-29-9l-4-3q-11-12-12-28t9-29l3-4 107-107q11-11 27.5-12t28.5 9zm635 12H597v256h256V598zM427 86q33 0 57.5 23t27.5 56v263q0 33-23 57.5T433 513H171q-34 0-58.5-23T86 434l-1-6V172q0-34 23-58.5T164 87l7-1h256zm320 0q51 0 88 35t39 86l1 7v89l33-34q12-11 28-12t29 9l4 3q11 12 12 28t-9 29l-3 4-107 107q-11 11-27.5 12t-28.5-9l-4-3-107-107q-12-13-12-30.5t12-30.5q12-11 28-12t28 9l5 3 33 34v-89q0-16-10.5-28T752 172H640q-18 0-30.5-12.5T597 129q0-16 11-28.5T635 87l5-1h107zm-320 86H171v256h256V172z"/></svg>