<svg viewBox="0 0 1024 1039" xmlns="http://www.w3.org/2000/svg"><path d="M214 495q3-59 28-110t65-89q40-38 93-60 52-22 112-22 62 0 116 24 55 23 95.5 63.5T787 397q24 54 24 116t-24 116q-23 55-63.5 95.5T628 788q-54 24-116 24-18 0-30.5 12.5T469 854q0 18 12.5 30.5T512 897q80 0 149-30 70-30 122.5-82.5T866 662q30-69 30-149t-30-149q-30-70-82.5-122.5T661 159q-69-30-149-30-77 0-146 29-68 28-120 77.5T163 352q-31 67-35 144l-55-56q-13-12-30.5-12T12 440Q0 453 0 470.5T12 501l128 128q13 12 30.5 12t30.5-12l128-128q12-13 12-30.5T329 440q-13-12-30.5-12T268 440l-54 55z"/></svg>