<svg viewBox="0 0 1024 1039" xmlns="http://www.w3.org/2000/svg"><path d="M539 157q74 0 138 28 65 28 113.5 76.5T867 375q28 64 28 138t-28 138q-28 65-76.5 113.5T677 841q-64 28-138 28t-139-28q-64-28-112.5-76.5T211 651q-28-64-28-138t28-138q28-65 76.5-113.5T400 185q65-28 139-28zm0 65q-60 0-113 23t-92.5 62.5Q294 347 271 400t-23 113q0 60 23 113t62.5 92.5Q373 758 426 781t113 23q60 0 113-23t92.5-62.5Q784 679 807 626t23-113q0-60-23-113t-62.5-92.5Q705 268 652 245t-113-23zm-30 309l-1-2-3-6-1-5V324q0-14 10-24.5t25-10.5q13 0 23 9t12 21v180l98 97q9 9 10 22t-7 23l-3 5q-10 9-22.5 10t-23.5-7l-4-3-110-110-1-2-2-3z"/></svg>