<svg viewBox="0 0 1024 1039" xmlns="http://www.w3.org/2000/svg"><path d="M239 853q-52 0-89-37-37-36-37-89H43V236q0-26 19-45t45-19h617v178h112l145 193v184h-75q0 53-37 89-37 37-89 37-53 0-89-37-37-36-37-89H365q0 53-37 89-37 37-89 37zm0-64q26 0 44-18t18-44q0-25-18-43t-44-18q-26 0-44 18t-18 43q0 26 18 44t44 18zM107 663h23q18-28 46-45 28-18 62-18t62 18q29 18 47 45h313V236H107v427zm673 126q25 0 43-18 19-18 19-44 0-25-19-43-18-18-43-18-26 0-44 18t-18 43q0 26 18 44t44 18zm-56-217h199L804 414h-80v158z"/></svg>