<svg viewBox="0 0 1024 1039" xmlns="http://www.w3.org/2000/svg"><path d="M128 513q0-80 30-149 30-70 82.5-122.5T363 159q69-30 149-30t149 30q70 30 122.5 82.5T866 364q30 69 30 149t-30 149q-30 70-82.5 122.5T661 867q-69 30-149 30t-149-30q-70-30-122.5-82.5T158 662q-30-69-30-149zM512 44q-97 0-183 37-85 36-149 100T80 330q-37 86-37 183t37 183q36 85 100 149t149 100q86 37 183 37t183-37q85-36 149-100t100-149q37-86 37-183t-37-183q-36-85-100-149T695 81q-86-37-183-37zM339 601q-8-15-24-20t-31 2q-15 8-20 24t3 31q34 67 99.5 108.5T512 788q80 0 145.5-41.5T757 638q8-15 2.5-31T739 584q-14-8-30-3t-24 20q-24 48-70.5 77T512 707q-57 0-103-29.5T339 601zm88-195q0 27-16 45.5T373 470q-22 0-37.5-18.5T320 406q0-26 15.5-45t37.5-19q22 0 38 19t16 45zm224 64q22 0 37.5-18.5T704 406q0-26-15.5-45T651 342q-22 0-38 19t-16 45q0 27 16 45.5t38 18.5z"/></svg>