<svg viewBox="0 0 1024 1039" xmlns="http://www.w3.org/2000/svg"><path d="M489 758L297 876q-15 9-32 5t-26-19q-5-7-6-15.5t1-16.5l30-117q8-32 28.5-57.5T343 616l209-100q7-4 10-11.5t-1-15.5q-3-6-8.5-9t-12.5-1l-233 40q-35 6-70-3.5T174 483l-73-62q-14-11-15.5-28.5T95 362q6-7 13.5-11t15.5-4l226-18q11-1 21-8t14-18l87-210q7-16 23-22.5t33-.5q7 4 13 10t10 13l86 210q5 11 14.5 18t21.5 8l227 18q17 1 28.5 14.5T939 392q-1 9-5 16.5T924 421L751 568q-9 8-12.5 19.5T737 611l54 220q4 17-5.5 32T759 882q-8 2-16.5.5T727 877L534 758q-11-6-23-6t-22 6z"/></svg>