<svg viewBox="0 0 1024 1039" xmlns="http://www.w3.org/2000/svg"><path d="M396 99q6-6 14-9.5t17-3.5h170q9 0 17 3.5t14 9.5l30 30h153q17 0 29.5 12.5T853 172q0 17-12.5 29.5T811 214H213q-17 0-29.5-12.5T171 172q0-18 12.5-30.5T213 129h153l30-30zm370 205q-7-3-17-3.5t-28-.5H303q-18 0-28 .5t-17 3.5q-6 3-11 8t-8 11q-3 7-3.5 17t-.5 28v324q0 54 1.5 84.5T249 827q9 18 23 32.5t33 23.5q20 11 50.5 12.5T439 897h146q53 0 83.5-1.5T719 883q19-9 33-23.5t23-32.5q11-20 12.5-50.5T789 692V368q0-18-.5-28t-3.5-17q-3-6-8-11t-11-8z"/></svg>