<svg viewBox="0 0 1024 1039" xmlns="http://www.w3.org/2000/svg"><path d="M554 884q11 0 19.5 8t8.5 20q0 10-7 18t-17 9l-4 1h-84q-11 0-19.5-8.5T442 912q0-11 7-18.5t17-9.5h88zm-42-755q66 0 125 25 58 25 101.5 68.5T807 324q25 58 25 124 0 72-32 136t-90 115q-14 12-22.5 35T676 793q-2 25-20 43t-43 21H417q-27 0-47-18.5T348 793q-3-36-11.5-59T314 699q-58-51-90-115t-32-136q0-66 25-124t68.5-101.5Q329 179 387 154q59-25 125-25zm0 56q-55 0-103 21-48 20-84 56t-57 84q-20 48-20 102 0 59 26.5 112.5T350 657q24 20 37 53t16 78q1 5 4 8.5t7 4.5h193q5 0 9-3.5t5-9.5q3-45 16-78t37-53q49-43 75.5-96.5T776 448q0-54-20-102-21-48-57-84t-84-56q-48-21-103-21zm129 268q6 8 6 18.5t-7 17.5l-4 3-96 77v115q0 11-8 19.5t-20 8.5q-11 0-19-7t-9-17V569l-96-77q-10-7-11-18.5t6-20.5q7-9 17-10.5t19 3.5l4 2 89 71 89-71q9-7 20.5-6t19.5 11z"/></svg>