<svg viewBox="0 0 1024 1039" xmlns="http://www.w3.org/2000/svg"><path d="M155 156q-13 12-13 30t13 30l156 156-12 13H171q-18 0-30.5 12.5T128 428v170q0 18 12.5 30.5T171 641h128l140 140q20 21 46.5 10t26.5-40V573l178 179q-15 11-32 21t-36 17q-11 5-18 16t-7 24q0 23 19.5 35t40.5 3q25-10 49-24t45-31l58 57q12 12 29.5 12t30.5-12q12-13 12-30.5T869 810L215 156q-12-13-29.5-13T155 156zm656 357q0 26-5 51t-13 49l65 65q18-37 28-79t10-86q0-61-18-117-19-56-51.5-103T749 211q-46-36-100-56-18-8-35 4t-17 32v8q0 13 7.5 22.5T623 236q41 16 76 44 34 28 59 64t39 79q14 43 14 90zM439 245l-7 7 80 80v-58q0-28-26.5-39T439 245zm265 268q0-57-29.5-102.5T597 341v76l106 106q0-2 .5-4.5t.5-5.5z"/></svg>