<svg viewBox="0 0 1024 1039" xmlns="http://www.w3.org/2000/svg"><path d="M128 428v170q0 18 12.5 30.5T171 641h128l140 140q20 21 46.5 10t26.5-40V274q0-28-26.5-39t-46.5 9L299 385H171q-18 0-30.5 12.5T128 428zm576 85q0-57-29.5-102.5T597 341v344q48-24 77.5-69.5T704 513zM597 191v8q0 13 7.5 22.5T623 236q41 16 76 44 34 28 59 64t39 79q14 43 14 90t-14 90q-14 43-39 79t-59 64q-35 28-76 44-12 5-19 14.5t-7 22.5v8q0 20 16.5 31.5T649 871q54-20 100-56 45-35 77.5-82T878 630q18-56 18-117t-18-117q-19-56-51.5-103T749 211q-46-36-100-56-19-8-35.5 4T597 191z"/></svg>