<svg viewBox="0 0 1024 1039" xmlns="http://www.w3.org/2000/svg"><path d="M512 172q60 0 113 23t93.5 63q40.5 40 64.5 93 25 54 29 116v3h29q74 0 126.5 53.5T1024 653v9q0 77-50.5 132.5T849 854H725q-17 0-29.5-12.5T683 812q0-17 10.5-29t26.5-14h121q40 0 69-31t29-76q0-43-27-73t-65-33h-77q-16 0-28-11t-14-27l-1-5v-25q0-48-17-90t-46-73.5Q635 293 596 275q-40-18-84-18-72 0-129.5 46.5T305 425q-4 12-13.5 20.5T269 456h-39q-59 0-102 45.5T85 613q0 63 40.5 107.5T222 769h77q17 0 29.5 12.5T341 812q0 16-10.5 28T304 854h-74q-48 0-90-19t-73-52q-31-33-49-77T0 613q0-49 17-92t47-76q30-33 71-52 40-20 86-22h12v-1q16-43 43-78 27-36 62-62t76-41q42-15 87-17h11zm0 256q16 0 28.5 10.5T554 465l1 5v239l55-56q11-11 27.5-12t28.5 9l4 3q12 12 12.5 28t-8.5 29l-4 4-128 128q-11 11-27.5 12t-28.5-9l-4-3-128-128q-13-13-13-30.5t13-30.5q11-11 27.5-12t28.5 9l4 3 55 56V470q0-17 12.5-29.5T512 428z"/></svg>