<svg viewBox="0 0 1024 1039" xmlns="http://www.w3.org/2000/svg"><path d="M896 129H303q-33 0-62 16t-46 44L35 445q-20 31-20 68t20 68l160 256q17 28 46 44t62 16h593q53 0 90.5-37.5T1024 769V257q0-53-37.5-90.5T896 129zm0 85q18 0 30.5 12.5T939 257v512q0 18-12.5 30.5T896 812H303q-11 0-20.5-5.5T267 792L107 536q-6-11-6-23t6-23l160-256q6-9 15.5-14.5T303 214h593zM414 330q-12 12-12 29.5t12 30.5l123 123-123 123q-12 13-12 30.5t12 29.5q13 13 30.5 13t29.5-13l123-123 123 123q13 13 30.5 13t30.5-13q12-12 12-29.5T781 636L657 513l124-123q12-13 12-30.5T781 330q-13-13-30.5-13T720 330L597 453 474 330q-12-13-29.5-13T414 330z"/></svg>