<svg viewBox="0 0 1024 1039" xmlns="http://www.w3.org/2000/svg"><path d="M139 186q10-12 26-14t30 7l4 3 682 598q14 11 15 28.5T885 840q-10 12-26 14t-30-7l-4-3-113-100q-44 21-94 33.5T512 790q-93 0-171-34-79-34-135.5-80T117 584q-32-46-32-71 0-28 40-82t110-103l-92-82q-14-11-15-28.5t11-31.5zm202 327q0 71 50 121t121 50q27 0 51.5-8t44.5-22l-88-77h-8q-26 0-45-18.5T448 514l-88-78q-9 18-14 37t-5 40zm171-277q94 0 172 34t135 80q57 46 88 92 32 46 32 71 0 20-22 56t-61 75L681 491q-8-61-53-103t-107-45l-10-1-106-93q25-6 52-9.5t55-3.5z"/></svg>