<svg viewBox="0 0 1024 1039" xmlns="http://www.w3.org/2000/svg"><path d="M512 214q-70 0-130.5 30T280 325q-11 14-29 16t-31-9q-14-12-16-29.5t9-30.5q27-33 60-59 33-27 71-45.5t80-28.5q43-10 88-10 80 0 149 30 70 30 122.5 82.5T866 364q30 69 30 149 0 18-12.5 30.5T853 556q-17 0-29.5-12.5T811 513q0-62-24-116-23-55-63.5-95.5T628 238q-54-24-116-24zM171 470q17 0 29.5 12.5T213 513q0 62 24 116 23 55 63.5 95.5T396 788q54 24 116 24 70 0 130.5-30T744 701q11-14 29-16t31 9q14 12 16 29.5t-9 30.5q-27 33-60 59-33 27-71 45.5T600 887q-43 10-88 10-80 0-149-30-70-30-122.5-82.5T158 662q-30-69-30-149 0-18 12.5-30.5T171 470zm-31-73q13-12 30.5-12t30.5 12l128 128q12 13 12 30.5T329 586q-13 12-30.5 12T268 586l-97-98-98 98q-13 12-30.5 12T12 586Q0 573 0 555.5T12 525l128-128zm744 232q-13 12-30.5 12T823 629L695 501q-12-13-12-30.5t12-30.5q13-12 30.5-12t30.5 12l97 98 98-98q13-12 30.5-12t30.5 12q12 13 12 30.5t-12 30.5L884 629z"/></svg>