<svg viewBox="0 0 1024 1039" xmlns="http://www.w3.org/2000/svg"><path d="M683 44q62 0 116 23 54 24 94.5 64.5T958 226q23 54 23 116v342q0 62-23 116-24 54-64.5 94.5T799 959q-54 23-116 23H341q-62 0-116-23-54-24-94.5-64.5T66 800q-23-54-23-116V342q0-62 23-116 24-54 64.5-94.5T225 67q54-23 116-23h342zm0 85H341q-44 0-83 17t-67.5 45.5Q162 220 145 259t-17 83v342q0 44 17 83t45.5 67.5Q219 863 258 880t83 17h342q44 0 83-17t67.5-45.5Q862 806 879 767t17-83V342q0-44-17-83t-45.5-67.5Q805 163 766 146t-83-17zm106 235q18 0 30.5 12.5T832 406q0 17-11 29t-27 14h-69v43h64q18 0 30.5 12.5T832 534q0 17-11 29t-27 14h-69v43q0 16-10.5 28T688 662h-5q-17 0-29-10.5T640 625V428q0-25 16.5-43.5T698 364h91zm-234 0q16 0 28 10.5t14 26.5v219q0 17-12.5 29.5T555 662q-17 0-29-10.5T512 625V406q0-17 12.5-29.5T555 364zm-214 0q19 0 36 4t33 12q16 9 21.5 25.5T428 438q-7 15-22.5 20.5T375 458l-4-2q-7-3-14.5-5t-15.5-2q-26 0-45 18.5T277 513q0 27 19 45.5t45 18.5q13 0 24-5t18-13l3-3h-2q-16 0-28.5-11T342 518l-1-5q0-16 11-28.5t27-13.5l5-1h45l1 1q22 1 36.5 17t14.5 37v6l-2 18q-10 52-49 82.5T341 662q-62 0-105.5-43.5T192 513q0-62 43.5-105.5T341 364z"/></svg>