<svg viewBox="0 0 1024 1039" xmlns="http://www.w3.org/2000/svg"><path d="M864 549H544v-72h320v72zM354 93h316q29 0 52.5.5T765 96q19 1 36.5 5t32.5 12q26 13 45.5 32.5T912 191q8 15 12 32.5t5 36.5q2 19 2.5 42.5t.5 52.5v316q0 29-.5 52.5T929 766q-1 19-5 36.5T912 835q-2 5-4.5 9.5T902 853l-52-52q3-7 5-16.5t4-24.5q1-16 1-38V357v-53q0-22-1-38-2-16-4.5-26t-5.5-17q-8-15-20-27t-27-20q-7-3-17-5.5t-26-4.5q-16-1-38-1H548v333l-72-71V165H303q-22 0-38 1-15 2-24.5 4t-16.5 5l-41-41q-3-3-6-5.5t-7-4.5q5-3 9.5-6t10.5-5q15-8 32.5-12t36.5-5q19-2 42.5-2.5T354 93zM105 206q-4 13-6.5 26.5T94 260q-1 19-1.5 42.5T92 355v316q0 29 .5 52.5T94 766q2 19 6 36.5t12 32.5q13 26 32.5 45.5T190 913q15 8 32.5 12t36.5 6q19 1 42.5 1.5t52.5.5h316q29 0 52.5-.5T765 931q14-2 27.5-4t25.5-7l-60-60q-16 1-38 1H548V649l-72-71v283H303q-22 0-38-1-16-2-26-4.5t-17-5.5q-15-8-27-20t-20-27q-3-7-5.5-17t-4.5-26q-1-16-1-38V357v-52q0-22 1-38l-57-58q-1 0-1.5-1t-1.5-2zm-2-102q10-11 25-11t25 11l768 768q11 10 11 25t-11 25q-10 11-25 11t-25-11L103 154q-11-10-11-25t11-25z"/></svg>