<svg viewBox="0 0 1024 1039" xmlns="http://www.w3.org/2000/svg"><path d="M512 129q-80 0-149 30-70 30-122.5 82.5T158 364q-30 69-30 149t30 149q30 70 82.5 122.5T363 867q69 30 149 30t149-30q70-30 122.5-82.5T866 662q30-69 30-149t-30-149q-30-70-82.5-122.5T661 159q-69-30-149-30zM43 513q0-97 37-183 36-85 100-149T329 81q86-37 183-37t183 37q85 36 149 100t100 149q37 86 37 183t-37 183q-36 85-100 149T695 945q-86 37-183 37t-183-37q-85-36-149-100T80 696q-37-86-37-183zm469-43q18 0 30.5 12.5T555 513v213q0 18-12.5 30.5T512 769q-18 0-30.5-12.5T469 726V513q0-18 12.5-30.5T512 470zm64-128q0-26-18.5-45T512 278q-27 0-45.5 19T448 342q0 27 18.5 45.5T512 406q27 0 45.5-18.5T576 342z"/></svg>