<svg viewBox="0 0 1050 1039" xmlns="http://www.w3.org/2000/svg"><path d="M824 65q36 0 66 29 29 28 47.5 77T961 286q5 65-8 138 9 22 16 46t13 47l17-3q18-4 32.5 6t17.5 28q3 16-5.5 30t-23.5 18l-5 2-21 3v8q-1 19-4 37.5t-9 37.5h26q18 0 30.5 12.5T1050 726q0 17-11 29t-27 14h-73q-31 47-77 86t-100.5 67.5Q707 951 647 967q-61 15-122 15t-122-15q-60-16-114.5-44.5T188 855q-46-39-77-86H43q-18 0-30.5-12.5T0 726q0-16 11-28t27-14h31q-6-20-9.5-40.5T56 602l-21-4q-17-4-27-18.5T1 548q3-16 16-26t29-9l5 1 17 3q6-23 13-47t16-46q-12-70-5-135t26.5-114.5Q138 125 167 95q28-30 59-30 13 0 22.5 4.5T271 85l12 11 52 49 12 11q9 9 17 15.5t15 10.5l7 4 4 2q41-9 69-12.5t66-3.5q34 0 60 3t62 10l12 3 2-1 5-3q6-3 13.5-8.5T696 162l7-6q4-4 9-8.5t10-9.5l45-43 12-10q13-11 22.5-15.5T824 65zm5 90l-4 4-41 38-18 17-14 13q-34 29-59 41t-50 4q-37-9-61-12t-57-3q-33 0-56.5 3T408 272q-26 8-51-4t-58-40l-16-14-14-13-42-41q-8 8-15 19.5T199 205q-19 42-24 96t8 118l2 13-8 22q-7 19-13.5 39.5T152 533l125 23q17 4 27 18.5t7 31.5q-3 16-16 26t-29 9l-5-1-119-22q2 17 6.5 33.5T161 684h108q18 0 30.5 12.5T312 726q0 17-11 29t-27 14h-53q28 28 63 52 35 23 74.5 40t81.5 27q42 9 85 9t85-9q42-10 81.5-27t74.5-40q35-24 63-52h-48q-18 0-30.5-12.5T738 726q0-16 11-28t27-14h113q8-16 12.5-32.5T908 618l-119 22q-17 4-32-6t-18-28q-3-16 5.5-30t23.5-18l5-2 125-23q-5-19-11.5-39.5T873 454l-8-22 2-13q13-66 10.5-121T859 204q-7-17-14.5-28.5T832 157l-3-2zM507 598h39l5 1h5l4 2 5 1 2 2 2 1 3 2 4 4q2 1 3 2t2 3l2 3q0 1 .5 2t1.5 2l2 4 1 5 1 5v9l-1 6-1 2-19 56 1 3q3 6 8 9.5t12 3.5q9 0 15-6t6-15q0-18 12.5-30.5T653 662q18 0 30.5 12.5T696 705q0 44-31.5 75.5T589 812q-18 0-34.5-6T525 790q-13 10-29.5 16t-34.5 6q-44 0-75.5-31.5T354 705q0-18 12.5-30.5T397 662q18 0 30.5 12.5T440 705q0 9 6 15t15 6q7 0 12-3.5t8-9.5l1-3-18-53q-6-17 2.5-33.5T492 601l5-2h4l6-1zm167-170q27 0 45.5 18.5T738 492q0 26-18.5 45T674 556q-26 0-45-19t-19-45q0-27 19-45.5t45-18.5zm-298 0q26 0 45 18.5t19 45.5q0 26-19 45t-45 19q-27 0-45.5-19T312 492q0-27 18.5-45.5T376 428zm286-239l-3-1-2 1h5z"/></svg>