<svg viewBox="0 0 1024 1039" xmlns="http://www.w3.org/2000/svg"><path d="M529 625l-88-88 1-1q28-31 52-65 24-33 43.5-68t35.5-72q16-36 27-74h83q17 0 29.5-12.5T725 214q0-17-12.5-29.5T683 172H427v-43q0-18-12.5-30.5T384 86q-18 0-30.5 12.5T341 129v43H85q-17 0-29.5 12.5T43 214q0 18 12.5 30.5T85 257h434q-21 61-55 119t-80 109q-23-25-42.5-52T305 378l-8-14q-5-10-15-16t-22-6h-17q-11 0-19 8t-8 19q0 3 1 6l2 6 4 8q21 39 47 76t57 72L141 721q-12 11-13 27.5t9 28.5l3 4q13 13 30.5 13t30.5-13l183-183 100 100q9 9 21 9t21-9q2-2 4-4.5t3-5.5l6-18q5-12 2-24.5T529 625zm231-197h-26q-14 0-25 7.5T694 455L527 900q-4 11 1 22t16 16q3 1 5.5 1.5t5.5.5h13q13 0 24-8t16-20l37-100h203l38 100q4 13 15 20.5t25 7.5h13q12 0 20.5-9t8.5-21q0-3-.5-5.5T966 900L800 455q-5-12-16-19.5t-24-7.5zm-13 114l69 184H678l69-184z"/></svg>