<svg viewBox="0 0 1024 1039" xmlns="http://www.w3.org/2000/svg"><path d="M265 769q2 5 4 9.5t4 9.5q11 21 28 38.5t39 28.5q25 12 61 14t101 2h232q9 0 14.5.5T759 873q4 1 7.5 2.5t7.5 3.5q3 2 7 6t11 10l41 41q33 33 51.5 50t33.5 18q12 1 23.5-4t19.5-14q9-11 10.5-36t1.5-72V554q0-65-2-101t-15-61q-11-22-28-39t-39-28q-4-2-9-4t-10-3v195q0 53-20 100-20 46-54.5 81T714 749q-47 20-100 20H265zM51 674V349q0-64 2-100.5T68 187q11-21 28-38.5t39-28.5q25-12 61-14.5t101-2.5h225q65 0 101 2.5t61 14.5q22 11 39 28.5t28 38.5q13 25 15 61.5t2 100.5v72q0 64-2 100.5T751 583q-11 21-28 38.5T684 650q-25 12-61 14.5T522 667H275.5q-5.5 0-10.5 1-4 1-7.5 2.5T250 674q-3 3-7 6.5T232 691l-41 41q-33 32-51.5 49T106 799q-12 1-23.5-4T63 781q-9-11-10.5-36T51 674z"/></svg>